{"glyphs":{"0":{"ha":758,"x_min":0,"x_max":0,"o":"m 524 1042 b 42 353 225 1042 42 732 b 329 -12 42 122 90 -12 b 771 679 614 -12 771 403 b 524 1042 771 913 697 1042 z m 261 451 b 514 969 285 764 431 969 b 589 768 579 969 589 882 b 336 104 589 446 494 104 b 254 314 269 104 254 211 b 261 451 254 365 258 414 z "},"1":{"ha":440,"x_min":0,"x_max":0,"o":"m 450 1039 b 97 931 282 939 174 931 l 81 867 l 213 867 l 29 0 l 229 0 z "},"2":{"ha":683,"x_min":0,"x_max":0,"o":"m 397 158 b 147 183 286 164 207 183 b 642 817 263 371 642 507 b 378 1040 642 951 568 1040 b 92 836 168 1040 92 931 b 190 711 92 756 135 711 b 297 758 224 711 261 726 b 244 853 258 769 244 821 b 357 965 244 922 264 965 b 442 851 397 965 442 919 b -17 40 442 482 -17 344 b -12 -4 -17 26 -15 11 b 97 35 15 6 65 35 b 442 -15 239 35 290 -15 b 607 193 579 -15 607 56 b 606 254 607 213 607 232 b 397 158 528 181 499 158 z "},"3":{"ha":714,"x_min":0,"x_max":0,"o":"m 285 357 b 172 428 274 407 235 428 b 8 217 65 428 8 347 b 315 -7 8 17 204 -7 b 674 354 522 -7 674 186 b 501 579 674 453 622 542 b 690 836 629 643 690 744 b 446 1040 690 946 604 1040 b 146 836 236 1040 146 931 b 244 711 146 756 189 711 b 351 758 278 711 315 726 b 299 853 313 769 299 821 b 425 965 299 922 332 965 b 513 856 483 965 513 918 b 276 581 513 758 438 624 b 456 322 404 538 456 428 b 286 81 456 199 386 81 b 163 193 213 81 163 100 b 285 357 163 263 172 347 z "},"4":{"ha":661,"x_min":0,"x_max":0,"o":"m 350 382 l 268 0 l 468 0 l 549 382 l 632 382 l 660 485 l 571 485 l 690 1042 l 485 1014 l 372 485 l 156 485 b 358 910 228 617 358 733 b 204 1042 358 997 285 1042 b 214 958 211 1014 214 986 b 11 382 214 756 61 535 z "},"5":{"ha":718,"x_min":0,"x_max":0,"o":"m 694 1040 b 469 996 610 1007 540 996 b 219 1019 393 996 317 1008 l 106 465 b 314 543 158 499 238 543 b 465 361 418 543 465 447 b 300 69 465 219 415 69 b 175 178 238 69 175 96 b 300 319 175 274 226 310 b 196 390 289 369 258 390 b 21 201 118 390 21 332 b 283 -7 21 14 153 -7 b 668 369 538 -7 668 182 b 422 660 668 529 592 660 b 250 617 372 660 314 647 l 306 868 b 544 833 368 861 457 833 b 697 994 650 833 697 901 b 694 1040 697 1010 696 1025 z "},"6":{"ha":690,"x_min":0,"x_max":0,"o":"m 313 424 b 435 529 344 489 383 529 b 508 394 494 529 508 451 b 324 85 508 246 413 85 b 208 250 256 85 208 110 b 215 358 208 281 211 315 b 508 958 274 936 472 958 b 578 883 549 958 578 921 b 556 833 578 865 571 847 b 679 928 640 838 679 881 b 519 1042 679 982 624 1042 b 24 319 211 1042 51 738 b 22 268 22 301 22 285 b 293 -7 22 121 71 -7 b 668 414 496 -7 668 176 b 481 643 668 522 613 643 b 285 504 375 643 285 585 b 313 424 285 479 293 451 z "},"7":{"ha":644,"x_min":0,"x_max":0,"o":"m 256 1042 b 67 903 119 1042 67 993 b 78 822 67 879 71 851 b 367 921 140 892 246 921 b 483 913 404 921 443 918 b 46 174 250 643 46 400 b 189 0 46 32 106 0 b 317 54 247 0 300 10 b 249 189 267 96 249 133 b 293 368 249 239 263 299 b 711 1042 332 458 639 935 z "},"8":{"ha":693,"x_min":0,"x_max":0,"o":"m 289 81 b 190 219 224 81 190 140 b 361 532 190 321 246 456 b 449 322 422 479 449 400 b 289 81 449 199 383 81 z m 282 -7 b 667 363 506 -7 667 193 b 499 579 667 457 617 543 b 693 839 628 642 693 746 b 431 1040 693 947 606 1040 b 121 768 247 1040 121 901 b 239 579 121 696 157 626 b -11 272 69 532 -11 399 b 282 -7 -11 129 92 -7 z m 376 626 b 303 794 326 668 303 732 b 444 978 303 889 354 978 b 517 878 492 978 517 938 b 376 626 517 797 469 688 z "},"9":{"ha":679,"x_min":0,"x_max":0,"o":"m 400 589 b 283 506 375 524 335 506 b 206 649 219 506 206 590 b 382 950 206 793 292 950 b 504 749 456 950 504 921 b 501 676 504 726 503 703 b 210 76 458 99 246 76 b 139 154 168 76 139 115 b 158 201 139 171 144 188 b 38 111 75 197 38 156 b 204 -7 38 56 97 -7 b 675 715 497 -7 675 297 b 407 1042 675 890 622 1042 b 47 635 206 1042 47 865 b 243 392 47 524 104 392 b 429 519 346 392 429 450 b 400 589 429 542 419 565 z "},"A":{"ha":928,"x_min":0,"x_max":0,"o":"m 743 0 l 961 1022 b 850 1043 928 1036 883 1043 b 365 628 686 1043 506 853 b 283 632 335 631 307 632 b 13 472 140 632 13 557 b 92 385 13 410 51 385 b 176 439 151 385 176 410 b 158 482 176 458 165 482 b 321 554 178 532 238 549 b 117 -1 199 343 117 117 b 303 -157 117 -149 207 -151 b 283 -79 301 -144 283 -150 b 463 554 283 65 358 329 b 650 504 522 550 579 535 l 543 0 z m 663 565 b 490 613 608 586 549 601 b 743 943 568 768 658 897 z "},"Á":{"ha":928,"x_min":0,"x_max":0,"o":"m 743 0 l 961 1022 b 850 1043 928 1036 883 1043 b 365 628 686 1043 506 853 b 283 632 335 631 307 632 b 13 472 140 632 13 557 b 92 385 13 410 51 385 b 176 439 151 385 176 410 b 158 482 176 458 165 482 b 321 554 178 532 238 549 b 117 -1 199 343 117 117 b 303 -157 117 -149 207 -151 b 283 -79 301 -144 283 -150 b 463 554 283 65 358 329 b 650 504 522 550 579 535 l 543 0 z m 663 565 b 490 613 608 586 549 601 b 743 943 568 768 658 897 z m 703 1126 l 807 1126 l 975 1389 l 829 1389 z "},"Â":{"ha":928,"x_min":0,"x_max":0,"o":"m 743 0 l 961 1022 b 850 1043 928 1036 883 1043 b 365 628 686 1043 506 853 b 283 632 335 631 307 632 b 13 472 140 632 13 557 b 92 385 13 410 51 385 b 176 439 151 385 176 410 b 158 482 176 458 165 482 b 321 554 178 532 238 549 b 117 -1 199 343 117 117 b 303 -157 117 -149 207 -151 b 283 -79 301 -144 283 -150 b 463 554 283 65 358 329 b 650 504 522 550 579 535 l 543 0 z m 663 565 b 490 613 608 586 549 601 b 743 943 568 768 658 897 z m 986 1126 l 903 1389 l 874 1389 l 579 1126 l 640 1126 l 858 1238 l 942 1126 z "},"Ä":{"ha":928,"x_min":0,"x_max":0,"o":"m 743 0 l 961 1022 b 850 1043 928 1036 883 1043 b 365 628 686 1043 506 853 b 283 632 335 631 307 632 b 13 472 140 632 13 557 b 92 385 13 410 51 385 b 176 439 151 385 176 410 b 158 482 176 458 165 482 b 321 554 178 532 238 549 b 117 -1 199 343 117 117 b 303 -157 117 -149 207 -151 b 283 -79 301 -144 283 -150 b 463 554 283 65 358 329 b 650 504 522 550 579 535 l 543 0 z m 663 565 b 490 613 608 586 549 601 b 743 943 568 768 658 897 z m 847 1228 b 932 1143 847 1181 885 1143 b 1017 1228 978 1143 1017 1181 b 932 1313 1017 1274 978 1313 b 847 1228 885 1313 847 1274 z m 597 1228 b 682 1143 597 1181 635 1143 b 767 1228 728 1143 767 1181 b 682 1313 767 1274 728 1313 b 597 1228 635 1313 597 1274 z "},"À":{"ha":928,"x_min":0,"x_max":0,"o":"m 743 0 l 961 1022 b 850 1043 928 1036 883 1043 b 365 628 686 1043 506 853 b 283 632 335 631 307 632 b 13 472 140 632 13 557 b 92 385 13 410 51 385 b 176 439 151 385 176 410 b 158 482 176 458 165 482 b 321 554 178 532 238 549 b 117 -1 199 343 117 117 b 303 -157 117 -149 207 -151 b 283 -79 301 -144 283 -150 b 463 554 283 65 358 329 b 650 504 522 550 579 535 l 543 0 z m 663 565 b 490 613 608 586 549 601 b 743 943 568 768 658 897 z m 758 1126 l 863 1126 l 822 1389 l 676 1389 z "},"Å":{"ha":928,"x_min":0,"x_max":0,"o":"m 743 0 l 961 1022 b 850 1043 928 1036 883 1043 b 365 628 686 1043 506 853 b 283 632 335 631 307 632 b 13 472 140 632 13 557 b 92 385 13 410 51 385 b 176 439 151 385 176 410 b 158 482 176 458 165 482 b 321 554 178 532 238 549 b 117 -1 199 343 117 117 b 303 -157 117 -149 207 -151 b 283 -79 301 -144 283 -150 b 463 554 283 65 358 329 b 650 504 522 550 579 535 l 543 0 z m 663 565 b 490 613 608 586 549 601 b 743 943 568 768 658 897 z m 863 1338 b 744 1211 779 1338 744 1261 b 842 1114 744 1158 782 1114 b 963 1231 928 1114 963 1169 b 863 1338 963 1290 931 1338 z m 911 1226 b 847 1163 911 1188 890 1163 b 800 1214 814 1163 800 1183 b 865 1292 800 1249 817 1292 b 911 1226 910 1292 911 1253 z "},"Ã":{"ha":928,"x_min":0,"x_max":0,"o":"m 743 0 l 961 1022 b 850 1043 928 1036 883 1043 b 365 628 686 1043 506 853 b 283 632 335 631 307 632 b 13 472 140 632 13 557 b 92 385 13 410 51 385 b 176 439 151 385 176 410 b 158 482 176 458 165 482 b 321 554 178 532 238 549 b 117 -1 199 343 117 117 b 303 -157 117 -149 207 -151 b 283 -79 301 -144 283 -150 b 463 554 283 65 358 329 b 650 504 522 550 579 535 l 543 0 z m 1076 1278 b 989 1246 1057 1257 1024 1246 b 760 1292 908 1246 861 1292 b 528 1156 654 1292 572 1244 l 536 1153 b 628 1189 561 1176 592 1189 b 861 1138 704 1189 769 1138 b 1085 1276 967 1138 1069 1211 z m 663 565 b 490 613 608 586 549 601 b 743 943 568 768 658 897 z "},"B":{"ha":882,"x_min":0,"x_max":0,"o":"m 319 883 l 131 0 l 331 0 l 444 532 b 514 536 469 535 496 536 b 640 365 606 536 640 456 b 503 110 640 247 579 110 b 410 160 483 110 436 117 b 392 72 397 125 392 96 b 556 -24 392 -15 472 -24 b 832 374 708 -24 832 194 b 672 600 832 482 786 578 b 811 819 761 651 811 738 b 496 1042 811 933 714 1042 b 8 681 264 1042 8 865 b 157 546 8 581 61 546 b 138 640 156 558 138 569 b 513 978 138 851 288 978 b 665 832 621 978 665 910 b 468 603 665 726 583 603 l 458 603 l 525 911 z "},"C":{"ha":690,"x_min":0,"x_max":0,"o":"m 694 250 b 435 117 643 161 542 117 b 251 376 285 117 251 194 b 532 976 251 624 361 976 b 628 878 621 976 628 900 b 567 764 628 843 601 774 b 646 728 593 733 624 728 b 743 856 717 728 743 782 b 501 1042 743 990 631 1042 b 33 346 132 1042 33 649 b 338 -8 33 61 196 -8 b 726 236 468 -8 653 33 z "},"Ç":{"ha":690,"x_min":0,"x_max":0,"o":"m 503 -150 b 417 -81 503 -107 475 -81 b 343 -92 396 -81 371 -85 l 376 -7 b 726 236 503 1 660 53 l 694 250 b 435 117 643 161 542 117 b 251 376 285 117 251 194 b 532 976 251 624 361 976 b 628 878 621 976 628 900 b 567 764 628 843 601 774 b 646 728 593 733 624 728 b 743 856 717 728 743 782 b 501 1042 743 990 631 1042 b 33 346 132 1042 33 649 b 317 -7 33 74 181 -1 l 261 -165 b 333 -149 276 -158 297 -149 b 388 -199 372 -149 388 -174 b 346 -257 388 -228 369 -257 b 243 -219 307 -257 300 -219 b 188 -264 217 -219 200 -242 b 336 -303 228 -285 265 -303 b 503 -150 417 -303 503 -250 z "},"D":{"ha":921,"x_min":0,"x_max":0,"o":"m 319 883 l 131 0 l 331 0 l 342 56 b 511 -18 401 4 458 -18 b 896 667 717 -18 896 308 b 496 1042 896 863 817 1042 b 8 681 264 1042 8 865 b 157 546 8 581 61 546 b 138 640 156 558 138 569 b 513 978 138 851 288 978 b 704 706 672 978 704 879 b 438 104 704 439 603 104 b 358 132 411 104 385 113 l 525 911 z "},"E":{"ha":638,"x_min":0,"x_max":0,"o":"m 640 250 b 421 117 589 161 528 117 b 258 301 332 117 258 200 b 500 581 258 397 324 508 b 317 810 369 639 317 729 b 486 981 317 903 385 981 b 578 878 575 981 578 900 b 517 764 578 843 551 774 b 596 728 543 733 574 728 b 693 856 667 728 693 782 b 438 1042 693 990 567 1042 b 129 790 240 1042 129 917 b 267 579 129 711 172 631 b 15 272 99 544 15 406 b 303 -8 15 129 111 -8 b 672 236 433 -8 599 33 z "},"É":{"ha":638,"x_min":0,"x_max":0,"o":"m 640 250 b 421 117 589 161 528 117 b 258 301 332 117 258 200 b 500 581 258 397 324 508 b 317 810 369 639 317 729 b 486 981 317 903 385 981 b 578 878 575 981 578 900 b 517 764 578 843 551 774 b 596 728 543 733 574 728 b 693 856 667 728 693 782 b 438 1042 693 990 567 1042 b 129 790 240 1042 129 917 b 267 579 129 711 172 631 b 15 272 99 544 15 406 b 303 -8 15 129 111 -8 b 672 236 433 -8 599 33 z m 404 1126 l 508 1126 l 676 1389 l 531 1389 z "},"Ê":{"ha":638,"x_min":0,"x_max":0,"o":"m 640 250 b 421 117 589 161 528 117 b 258 301 332 117 258 200 b 500 581 258 397 324 508 b 317 810 369 639 317 729 b 486 981 317 903 385 981 b 578 878 575 981 578 900 b 517 764 578 843 551 774 b 596 728 543 733 574 728 b 693 856 667 728 693 782 b 438 1042 693 990 567 1042 b 129 790 240 1042 129 917 b 267 579 129 711 172 631 b 15 272 99 544 15 406 b 303 -8 15 129 111 -8 b 672 236 433 -8 599 33 z m 689 1126 l 606 1389 l 576 1389 l 282 1126 l 343 1126 l 561 1238 l 644 1126 z "},"Ë":{"ha":638,"x_min":0,"x_max":0,"o":"m 640 250 b 421 117 589 161 528 117 b 258 301 332 117 258 200 b 500 581 258 397 324 508 b 317 810 369 639 317 729 b 486 981 317 903 385 981 b 578 878 575 981 578 900 b 517 764 578 843 551 774 b 596 728 543 733 574 728 b 693 856 667 728 693 782 b 438 1042 693 990 567 1042 b 129 790 240 1042 129 917 b 267 579 129 711 172 631 b 15 272 99 544 15 406 b 303 -8 15 129 111 -8 b 672 236 433 -8 599 33 z m 261 1228 b 346 1143 261 1181 299 1143 b 431 1228 392 1143 431 1181 b 346 1313 431 1274 392 1313 b 261 1228 299 1313 261 1274 z m 511 1228 b 596 1143 511 1181 549 1143 b 681 1228 642 1143 681 1181 b 596 1313 681 1274 642 1313 b 511 1228 549 1313 511 1274 z "},"È":{"ha":638,"x_min":0,"x_max":0,"o":"m 640 250 b 421 117 589 161 528 117 b 258 301 332 117 258 200 b 500 581 258 397 324 508 b 317 810 369 639 317 729 b 486 981 317 903 385 981 b 578 878 575 981 578 900 b 517 764 578 843 551 774 b 596 728 543 733 574 728 b 693 856 667 728 693 782 b 438 1042 693 990 567 1042 b 129 790 240 1042 129 917 b 267 579 129 711 172 631 b 15 272 99 544 15 406 b 303 -8 15 129 111 -8 b 672 236 433 -8 599 33 z m 446 1126 l 550 1126 l 510 1389 l 364 1389 z "},"F":{"ha":688,"x_min":0,"x_max":0,"o":"m 447 582 l 515 901 b 710 875 581 888 646 875 b 842 1042 818 899 822 983 b 717 1025 803 1029 760 1025 b 486 1042 629 1025 542 1042 b 13 681 143 1042 13 865 b 161 546 13 581 65 546 b 142 640 160 558 142 569 b 322 928 142 861 215 922 l 122 0 l 322 0 l 425 479 l 633 479 l 661 582 z "},"G":{"ha":803,"x_min":0,"x_max":0,"o":"m 579 581 l 519 318 b 401 267 490 279 453 267 b 240 496 286 267 240 372 b 549 976 240 717 396 976 b 644 878 638 976 644 900 b 583 764 644 843 618 774 b 679 728 610 733 657 728 b 776 856 750 728 776 782 b 518 1042 776 990 647 1042 b 26 507 208 1042 26 772 b 325 151 26 315 99 151 b 494 201 338 151 414 158 l 439 -47 b 300 -218 407 -190 363 -218 b 213 -124 242 -218 213 -172 b 310 -18 213 -72 246 -18 b 393 -54 338 -18 358 -25 b 401 1 399 -33 401 -14 b 265 94 401 90 321 94 b 96 -96 156 94 96 -1 b 289 -287 96 -192 157 -287 b 644 58 517 -287 599 -154 l 758 581 z "},"H":{"ha":876,"x_min":0,"x_max":0,"o":"m 551 1039 b 496 1042 533 1040 515 1042 b 8 681 264 1042 8 865 b 157 546 8 581 61 546 b 138 640 156 558 138 569 b 332 944 138 788 210 893 l 131 0 l 331 0 l 442 524 b 517 529 464 526 490 529 b 606 515 546 529 575 526 l 496 0 l 696 0 l 917 1039 l 717 1039 l 631 633 b 600 635 621 635 610 635 b 461 617 556 635 508 625 z "},"I":{"ha":521,"x_min":0,"x_max":0,"o":"m 551 1039 b 496 1042 533 1040 515 1042 b 8 681 264 1042 8 865 b 157 546 8 581 61 546 b 138 640 156 558 138 569 b 332 943 138 789 211 893 l 131 0 l 331 0 z "},"Í":{"ha":521,"x_min":0,"x_max":0,"o":"m 551 1039 b 496 1042 533 1040 515 1042 b 8 681 264 1042 8 865 b 157 546 8 581 61 546 b 138 640 156 558 138 569 b 332 943 138 789 211 893 l 131 0 l 331 0 z m 418 1126 l 522 1126 l 690 1389 l 544 1389 z "},"Î":{"ha":521,"x_min":0,"x_max":0,"o":"m 551 1039 b 496 1042 533 1040 515 1042 b 8 681 264 1042 8 865 b 157 546 8 581 61 546 b 138 640 156 558 138 569 b 332 943 138 789 211 893 l 131 0 l 331 0 z m 617 1126 l 533 1389 l 504 1389 l 210 1126 l 271 1126 l 489 1238 l 572 1126 z "},"Ï":{"ha":521,"x_min":0,"x_max":0,"o":"m 551 1039 b 496 1042 533 1040 515 1042 b 8 681 264 1042 8 865 b 157 546 8 581 61 546 b 138 640 156 558 138 569 b 332 943 138 789 211 893 l 131 0 l 331 0 z m 482 1228 b 567 1143 482 1181 519 1143 b 651 1228 613 1143 651 1181 b 567 1313 651 1274 613 1313 b 482 1228 519 1313 482 1274 z m 232 1228 b 317 1143 232 1181 269 1143 b 401 1228 363 1143 401 1181 b 317 1313 401 1274 363 1313 b 232 1228 269 1313 232 1274 z "},"Ì":{"ha":521,"x_min":0,"x_max":0,"o":"m 551 1039 b 496 1042 533 1040 515 1042 b 8 681 264 1042 8 865 b 157 546 8 581 61 546 b 138 640 156 558 138 569 b 332 943 138 789 211 893 l 131 0 l 331 0 z m 401 1126 l 506 1126 l 465 1389 l 319 1389 z "},"J":{"ha":744,"x_min":0,"x_max":0,"o":"m 747 1042 b 260 681 515 1042 260 865 b 408 546 260 581 313 546 b 389 640 407 558 389 569 b 585 944 389 789 464 894 l 367 -47 b 235 -218 335 -190 297 -218 b 140 -121 194 -218 140 -193 b 238 -18 140 -69 174 -18 b 321 -54 265 -18 286 -25 b 329 1 326 -33 329 -14 b 193 94 329 90 249 94 b 24 -92 83 94 24 3 b 229 -287 24 -207 97 -287 b 594 56 457 -287 550 -157 l 803 1042 z "},"K":{"ha":835,"x_min":0,"x_max":0,"o":"m 551 1039 b 496 1042 533 1040 515 1042 b 8 681 264 1042 8 865 b 157 546 8 581 61 546 b 138 640 156 558 138 569 b 332 944 138 788 210 893 l 131 0 l 331 0 l 442 522 b 488 528 460 526 475 528 b 571 435 550 528 571 490 b 497 69 571 329 497 161 b 606 -24 497 24 515 -24 b 743 0 639 -24 685 -17 b 689 92 710 13 689 50 b 757 443 689 179 757 329 b 585 592 757 528 719 592 b 535 589 569 592 553 592 l 922 1035 l 776 1035 b 460 614 776 1036 547 732 z "},"L":{"ha":544,"x_min":0,"x_max":0,"o":"m 551 1025 b 496 1028 533 1026 515 1028 b 8 667 264 1028 8 851 b 157 532 8 567 61 532 b 138 626 156 544 138 556 b 332 929 138 775 211 879 l 125 -33 b 157 -32 136 -32 146 -32 b 776 -347 403 -32 578 -347 b 921 -129 851 -347 907 -262 b 804 -151 881 -146 842 -151 b 338 28 626 -151 482 -4 z "},"M":{"ha":1090,"x_min":0,"x_max":0,"o":"m 903 0 l 1121 1022 l 903 1022 l 599 222 l 599 1022 b 503 1036 568 1032 535 1036 b 51 681 286 1036 51 850 b 200 546 51 581 104 546 b 181 640 199 558 181 569 b 404 954 181 800 265 910 l 93 0 l 204 0 l 388 593 l 388 0 l 578 0 l 842 657 l 703 0 z "},"N":{"ha":975,"x_min":0,"x_max":0,"o":"m 806 1039 l 621 169 b 607 321 611 203 607 257 b 622 783 607 456 622 638 b 496 1042 622 982 613 1042 b 8 681 264 1042 8 865 b 157 546 8 581 61 546 b 138 640 156 558 138 569 b 332 944 138 788 210 893 l 131 0 l 331 0 l 511 850 b 514 726 514 811 514 769 b 504 283 514 582 504 419 b 585 0 504 122 519 0 l 785 0 l 1006 1039 z "},"Ñ":{"ha":975,"x_min":0,"x_max":0,"o":"m 806 1039 l 621 169 b 607 321 611 203 607 257 b 622 783 607 456 622 638 b 496 1042 622 979 613 1042 b 8 681 264 1042 8 865 b 157 546 8 581 61 546 b 138 640 156 558 138 569 b 332 944 138 788 210 893 l 131 0 l 331 0 l 511 850 b 514 726 514 811 514 769 b 504 283 514 582 504 419 b 585 0 504 122 519 0 l 785 0 l 1006 1039 z m 951 1278 b 864 1246 932 1257 899 1246 b 635 1292 783 1246 736 1292 b 403 1156 529 1292 447 1244 l 411 1153 b 503 1189 436 1176 467 1189 b 736 1138 579 1189 644 1138 b 960 1276 842 1138 944 1211 z "},"O":{"ha":914,"x_min":0,"x_max":0,"o":"m 539 911 b 474 922 515 918 494 922 b 176 301 268 922 176 561 b 461 -12 176 71 283 -12 b 876 665 710 -12 876 394 b 496 1042 876 907 771 1042 b 8 681 264 1042 8 865 b 157 546 8 581 61 546 b 138 640 156 558 138 569 b 513 978 138 851 288 978 b 715 694 688 978 715 847 b 461 104 715 435 581 104 b 351 329 385 104 351 210 b 539 911 351 557 425 761 z "},"Ó":{"ha":914,"x_min":0,"x_max":0,"o":"m 539 911 b 474 922 515 918 494 922 b 176 301 268 922 176 561 b 461 -12 176 71 283 -12 b 876 665 710 -12 876 394 b 496 1042 876 907 771 1042 b 8 681 264 1042 8 865 b 157 546 8 581 61 546 b 138 640 156 558 138 569 b 513 978 138 851 288 978 b 715 694 688 978 715 847 b 461 104 715 435 581 104 b 351 329 385 104 351 210 b 539 911 351 557 425 761 z m 599 1126 l 703 1126 l 871 1389 l 725 1389 z "},"Ô":{"ha":914,"x_min":0,"x_max":0,"o":"m 539 911 b 474 922 515 918 494 922 b 176 301 268 922 176 561 b 461 -12 176 71 283 -12 b 876 665 710 -12 876 394 b 496 1042 876 907 771 1042 b 8 681 264 1042 8 865 b 157 546 8 581 61 546 b 138 640 156 558 138 569 b 513 978 138 851 288 978 b 715 694 688 978 715 847 b 461 104 715 435 581 104 b 351 329 385 104 351 210 b 539 911 351 557 425 761 z m 826 1126 l 743 1389 l 714 1389 l 419 1126 l 481 1126 l 699 1238 l 782 1126 z "},"Ö":{"ha":914,"x_min":0,"x_max":0,"o":"m 539 911 b 474 922 515 918 494 922 b 176 301 268 922 176 561 b 461 -12 176 71 283 -12 b 876 665 710 -12 876 394 b 496 1042 876 907 771 1042 b 8 681 264 1042 8 865 b 157 546 8 581 61 546 b 138 640 156 558 138 569 b 513 978 138 851 288 978 b 715 694 688 978 715 847 b 461 104 715 435 581 104 b 351 329 385 104 351 210 b 539 911 351 557 425 761 z m 428 1228 b 513 1143 428 1181 465 1143 b 597 1228 558 1143 597 1181 b 513 1313 597 1274 558 1313 b 428 1228 465 1313 428 1274 z m 678 1228 b 763 1143 678 1181 715 1143 b 847 1228 808 1143 847 1181 b 763 1313 847 1274 808 1313 b 678 1228 715 1313 678 1274 z "},"Ò":{"ha":914,"x_min":0,"x_max":0,"o":"m 539 911 b 474 922 515 918 494 922 b 176 301 268 922 176 561 b 461 -12 176 71 283 -12 b 876 665 710 -12 876 394 b 496 1042 876 907 771 1042 b 8 681 264 1042 8 865 b 157 546 8 581 61 546 b 138 640 156 558 138 569 b 513 978 138 851 288 978 b 715 694 688 978 715 847 b 461 104 715 435 581 104 b 351 329 385 104 351 210 b 539 911 351 557 425 761 z m 557 1126 l 661 1126 l 621 1389 l 475 1389 z "},"Õ":{"ha":914,"x_min":0,"x_max":0,"o":"m 539 911 b 474 922 515 918 494 922 b 176 301 268 922 176 561 b 461 -12 176 71 283 -12 b 876 665 710 -12 876 394 b 496 1042 876 907 771 1042 b 8 681 264 1042 8 865 b 157 546 8 581 61 546 b 138 640 156 558 138 569 b 513 978 138 851 288 978 b 715 694 688 978 715 847 b 461 104 715 435 581 104 b 351 329 385 104 351 210 b 539 911 351 557 425 761 z m 879 1278 b 792 1246 860 1257 826 1246 b 563 1292 711 1246 664 1292 b 331 1156 457 1292 375 1244 l 339 1153 b 431 1189 364 1176 394 1189 b 664 1138 507 1189 572 1138 b 888 1276 769 1138 872 1211 z "},"P":{"ha":796,"x_min":0,"x_max":0,"o":"m 319 883 l 131 0 l 331 0 l 415 396 l 422 396 b 824 768 672 396 824 592 b 496 1042 824 911 724 1042 b 8 681 264 1042 8 865 b 157 546 8 581 61 546 b 138 640 156 558 138 569 b 497 978 138 851 272 978 b 669 789 619 978 669 892 b 426 447 669 642 565 458 l 525 911 z "},"Q":{"ha":914,"x_min":0,"x_max":0,"o":"m 525 911 b 463 922 503 918 482 922 b 163 308 268 922 163 567 b 461 -12 163 74 282 -12 b 525 -3 483 -12 504 -8 b 699 -157 549 -81 583 -157 b 842 -37 758 -157 806 -133 b 811 -40 831 -39 821 -40 b 643 67 726 -40 683 10 b 876 665 788 199 876 468 b 496 1042 876 907 771 1042 b 8 681 264 1042 8 865 b 157 546 8 581 61 546 b 138 640 156 558 138 569 b 513 978 138 851 288 978 b 715 694 688 978 715 847 b 553 176 715 510 640 289 b 436 218 524 201 486 218 b 353 206 411 218 383 214 b 338 331 343 242 338 285 b 525 911 338 558 411 761 z m 401 167 b 483 114 443 167 467 144 b 447 104 471 107 458 104 b 368 163 411 104 386 126 b 401 167 381 165 392 167 z "},"R":{"ha":835,"x_min":0,"x_max":0,"o":"m 319 883 l 131 0 l 331 0 l 442 524 b 486 529 458 528 474 529 b 569 435 549 529 569 490 b 497 69 569 329 497 161 b 606 -24 497 24 515 -24 b 743 0 639 -24 685 -17 b 689 92 710 13 689 50 b 757 443 689 178 757 329 b 661 582 757 508 733 561 b 811 819 757 638 811 735 b 496 1042 811 933 715 1042 b 8 681 264 1042 8 865 b 157 546 8 581 61 546 b 138 640 156 558 138 569 b 513 978 138 851 288 978 b 665 832 621 978 665 910 b 468 589 665 724 583 589 l 456 589 l 525 911 z "},"S":{"ha":792,"x_min":0,"x_max":0,"o":"m 756 875 b 522 1042 756 1031 596 1042 b 192 783 357 1042 192 929 b 492 258 192 576 492 519 b 339 60 492 156 449 60 b 201 193 274 60 201 100 b 364 346 201 289 251 336 b 251 417 353 396 314 417 b 47 217 144 417 47 347 b 354 -7 47 17 243 -7 b 722 315 578 -7 722 119 b 410 856 722 625 410 638 b 539 976 410 932 463 976 b 640 883 613 976 640 932 b 578 764 640 838 615 786 b 640 735 596 743 618 735 b 756 875 713 735 756 796 z "},"T":{"ha":668,"x_min":0,"x_max":0,"o":"m 867 858 b 999 1038 978 858 979 979 b 839 1017 961 1022 903 1017 b 482 1040 703 1017 539 1040 b 8 679 139 1040 8 864 b 157 544 8 579 61 544 b 138 639 156 557 138 568 b 415 918 138 874 260 918 l 218 0 l 418 0 l 610 894 b 867 858 703 878 793 858 z "},"U":{"ha":942,"x_min":0,"x_max":0,"o":"m 774 1039 l 596 211 b 461 104 560 146 517 104 b 351 329 385 104 351 210 b 600 1035 351 547 482 879 b 496 1042 575 1042 543 1042 b 8 681 264 1042 8 865 b 157 546 8 581 61 546 b 138 640 156 558 138 569 b 396 965 138 813 236 928 b 175 296 247 817 175 485 b 432 1 175 72 272 1 b 567 72 474 1 521 31 l 551 0 l 751 0 l 972 1039 z "},"Ú":{"ha":942,"x_min":0,"x_max":0,"o":"m 774 1039 l 596 211 b 461 104 560 146 517 104 b 351 329 385 104 351 210 b 600 1035 351 547 482 879 b 496 1042 575 1042 544 1042 b 8 681 264 1042 8 865 b 157 546 8 581 61 546 b 138 640 156 558 138 569 b 396 965 138 813 236 928 b 175 296 247 817 175 485 b 432 1 175 72 272 1 b 567 72 474 1 521 31 l 551 0 l 751 0 l 972 1039 z m 599 1126 l 703 1126 l 871 1389 l 725 1389 z "},"Û":{"ha":942,"x_min":0,"x_max":0,"o":"m 774 1039 l 596 211 b 461 104 560 146 517 104 b 351 329 385 104 351 210 b 600 1035 351 547 482 879 b 496 1042 575 1042 543 1042 b 8 681 264 1042 8 865 b 157 546 8 581 61 546 b 138 640 156 558 138 569 b 396 965 138 813 236 928 b 175 296 247 817 175 485 b 432 1 175 72 272 1 b 567 72 474 1 521 31 l 551 0 l 751 0 l 972 1039 z m 882 1126 l 799 1389 l 769 1389 l 475 1126 l 536 1126 l 754 1238 l 838 1126 z "},"Ü":{"ha":942,"x_min":0,"x_max":0,"o":"m 774 1039 l 596 211 b 461 104 560 146 517 104 b 351 329 385 104 351 210 b 600 1035 351 547 482 879 b 496 1042 575 1042 543 1042 b 8 681 264 1042 8 865 b 157 546 8 581 61 546 b 138 640 156 558 138 569 b 396 965 138 813 236 928 b 175 296 247 817 175 485 b 432 1 175 72 272 1 b 567 72 474 1 521 31 l 551 0 l 751 0 l 972 1039 z m 525 1228 b 610 1143 525 1181 563 1143 b 694 1228 656 1143 694 1181 b 610 1313 694 1274 656 1313 b 525 1228 563 1313 525 1274 z m 775 1228 b 860 1143 775 1181 813 1143 b 944 1228 906 1143 944 1181 b 860 1313 944 1274 906 1313 b 775 1228 813 1313 775 1274 z "},"Ù":{"ha":942,"x_min":0,"x_max":0,"o":"m 774 1039 l 596 211 b 461 104 560 146 517 104 b 351 329 385 104 351 210 b 600 1035 351 547 482 879 b 496 1042 575 1042 544 1042 b 8 681 264 1042 8 865 b 157 546 8 581 61 546 b 138 640 156 558 138 569 b 396 965 138 813 236 928 b 175 296 247 817 175 485 b 432 1 175 72 272 1 b 567 72 474 1 521 31 l 551 0 l 751 0 l 972 1039 z m 626 1126 l 731 1126 l 690 1389 l 544 1389 z "},"V":{"ha":854,"x_min":0,"x_max":0,"o":"m 551 1039 b 496 1042 533 1040 515 1042 b 8 681 264 1042 8 865 b 157 546 8 581 61 546 b 138 640 156 558 138 569 b 367 949 138 793 215 901 l 367 0 l 567 0 l 953 1035 l 856 1035 l 564 185 z "},"W":{"ha":1347,"x_min":0,"x_max":0,"o":"m 551 1039 b 496 1042 533 1040 515 1042 b 8 681 264 1042 8 865 b 157 546 8 581 61 546 b 138 640 156 558 138 569 b 367 949 138 793 215 901 l 367 0 l 567 0 l 847 707 l 847 0 l 1047 0 l 1433 1035 l 1336 1035 l 1032 185 l 1032 1035 l 856 1035 l 564 185 z "},"X":{"ha":861,"x_min":0,"x_max":0,"o":"m 767 0 l 636 631 l 869 1035 l 772 1035 l 611 750 l 551 1039 b 496 1042 533 1040 515 1042 b 8 681 264 1042 8 865 b 157 546 8 581 61 546 b 138 640 156 558 138 569 b 344 949 138 793 215 901 l 447 461 l 186 0 l 271 0 l 472 347 l 546 0 z "},"Y":{"ha":861,"x_min":0,"x_max":0,"o":"m 608 0 l 700 428 l 969 1035 l 878 1035 l 672 542 l 551 1039 b 496 1042 533 1040 515 1042 b 8 681 264 1042 8 865 b 157 546 8 581 61 546 b 138 640 156 558 138 569 b 344 949 138 793 215 901 l 478 428 l 386 0 z "},"Ý":{"ha":861,"x_min":0,"x_max":0,"o":"m 608 0 l 700 428 l 969 1035 l 878 1035 l 672 542 l 551 1039 b 496 1042 533 1040 515 1042 b 8 681 264 1042 8 865 b 157 546 8 581 61 546 b 138 640 156 558 138 569 b 344 949 138 793 215 901 l 478 428 l 386 0 z m 649 1126 l 753 1126 l 921 1389 l 775 1389 z "},"Z":{"ha":736,"x_min":0,"x_max":0,"o":"m 561 108 b 485 78 561 83 528 78 b 283 81 451 78 315 79 l 767 1042 l 290 1042 b 128 913 179 1042 128 983 b 193 832 128 868 154 832 b 281 915 238 832 281 850 b 257 956 281 939 269 956 b 371 986 257 981 328 986 b 510 983 403 986 478 985 l 15 0 l 517 0 b 690 151 628 0 690 81 b 625 232 690 196 664 232 b 536 147 581 232 536 213 b 561 108 536 124 549 108 z "},"a":{"ha":699,"x_min":0,"x_max":0,"o":"m 440 694 l 432 658 b 339 693 407 679 372 693 b -25 168 61 693 -25 407 b 147 -8 -25 86 14 -8 b 336 106 232 -8 294 49 b 506 0 354 33 415 0 b 835 249 614 0 771 185 l 788 249 b 604 126 732 204 660 126 b 535 179 549 126 535 149 b 540 222 535 192 538 207 l 640 694 z m 350 615 b 418 590 369 615 396 610 l 340 222 b 332 176 336 206 333 190 b 243 107 306 138 275 107 b 163 206 208 107 163 122 b 350 615 163 394 246 615 z "},"á":{"ha":679,"x_min":0,"x_max":0,"o":"m 440 694 l 432 658 b 339 693 407 679 372 693 b -25 168 61 693 -25 407 b 147 -8 -25 86 14 -8 b 336 106 232 -8 294 49 b 506 0 354 33 415 0 b 835 249 614 0 771 185 l 788 249 b 604 126 732 204 660 126 b 535 179 549 126 535 149 b 540 222 535 192 538 207 l 640 694 z m 350 615 b 418 590 369 615 396 610 l 340 222 b 332 176 336 206 333 190 b 243 107 306 138 275 107 b 163 206 208 107 163 122 b 350 615 163 394 246 615 z m 343 779 l 447 779 l 615 1042 l 469 1042 z "},"â":{"ha":699,"x_min":0,"x_max":0,"o":"m 440 694 l 432 658 b 339 693 407 679 372 693 b -25 168 61 693 -25 407 b 147 -8 -25 86 14 -8 b 336 106 232 -8 294 49 b 506 0 354 33 415 0 b 835 249 614 0 771 185 l 788 249 b 604 126 732 204 660 126 b 535 179 549 126 535 149 b 540 222 535 192 538 207 l 640 694 z m 350 615 b 418 590 369 615 396 610 l 340 222 b 332 176 336 206 333 190 b 243 107 306 138 275 107 b 163 206 208 107 163 122 b 350 615 163 394 246 615 z m 614 779 l 531 1042 l 501 1042 l 207 779 l 268 779 l 486 890 l 569 779 z "},"´":{"ha":279,"x_min":0,"x_max":0,"o":"m 115 779 l 219 779 l 388 1042 l 242 1042 z "},"ä":{"ha":699,"x_min":0,"x_max":0,"o":"m 440 694 l 432 658 b 339 693 407 679 372 693 b -25 168 61 693 -25 407 b 147 -8 -25 86 14 -8 b 336 106 232 -8 294 49 b 506 0 354 33 415 0 b 835 249 614 0 771 185 l 788 249 b 604 126 732 204 660 126 b 535 179 549 126 535 149 b 540 222 535 192 538 207 l 640 694 z m 350 615 b 418 590 369 615 396 610 l 340 222 b 332 176 336 206 333 190 b 243 107 306 138 275 107 b 163 206 208 107 163 122 b 350 615 163 394 246 615 z m 203 881 b 288 796 203 833 240 796 b 372 881 333 796 372 833 b 288 965 372 926 333 965 b 203 881 240 965 203 926 z m 453 881 b 538 796 453 833 490 796 b 622 881 583 796 622 833 b 538 965 622 926 583 965 b 453 881 490 965 453 926 z "},"æ":{"ha":868,"x_min":0,"x_max":0,"o":"m 147 -8 b 361 142 251 -8 321 76 b 556 0 386 60 453 0 b 947 283 735 0 868 140 l 885 283 b 651 100 836 181 719 100 b 538 219 597 100 538 128 b 542 279 538 236 539 257 b 856 563 674 296 856 393 b 678 707 856 660 792 707 b 465 601 583 707 515 664 b 339 693 464 647 399 693 b -25 168 61 693 -25 407 b 147 -8 -25 86 14 -8 z m 350 615 b 439 565 376 615 415 606 b 350 221 374 461 350 319 l 350 204 b 243 107 318 154 282 107 b 163 206 208 107 163 122 b 350 615 163 394 246 615 z m 772 556 b 553 346 771 457 681 347 b 724 633 582 476 646 633 b 772 556 765 633 772 585 z "},"à":{"ha":699,"x_min":0,"x_max":0,"o":"m 440 694 l 432 658 b 339 693 407 679 372 693 b -25 168 61 693 -25 407 b 147 -8 -25 86 14 -8 b 336 106 232 -8 294 49 b 506 0 354 33 415 0 b 835 249 614 0 771 185 l 788 249 b 604 126 732 204 660 126 b 535 179 549 126 535 149 b 540 222 535 192 538 207 l 640 694 z m 350 615 b 418 590 369 615 396 610 l 340 222 b 332 176 336 206 333 190 b 243 107 306 138 275 107 b 163 206 208 107 163 122 b 350 615 163 394 246 615 z m 338 779 l 442 779 l 401 1042 l 256 1042 z "},"å":{"ha":699,"x_min":0,"x_max":0,"o":"m 440 694 l 432 658 b 339 693 407 679 372 693 b -25 168 61 693 -25 407 b 147 -8 -25 86 14 -8 b 336 106 232 -8 294 49 b 506 0 354 33 415 0 b 835 249 614 0 771 185 l 788 249 b 604 126 732 204 660 126 b 535 179 549 126 535 149 b 540 222 535 192 538 207 l 640 694 z m 350 615 b 418 590 369 615 396 610 l 340 222 b 332 176 336 206 333 190 b 243 107 306 138 275 107 b 163 206 208 107 163 122 b 350 615 163 394 246 615 z m 450 997 b 332 871 367 997 332 921 b 429 774 332 818 369 774 b 550 890 515 774 550 829 b 450 997 550 950 518 997 z m 499 886 b 435 822 499 847 478 822 b 388 874 401 822 388 843 b 453 951 388 908 404 951 b 499 886 497 951 499 913 z "},"^":{"ha":585,"x_min":0,"x_max":0,"o":"m 476 779 l 393 1042 l 364 1042 l 69 779 l 131 779 l 349 890 l 432 779 z "},"@":{"ha":781,"x_min":0,"x_max":0,"o":"m 547 138 b 514 154 540 143 524 154 b 482 136 503 154 490 144 b 283 72 439 93 369 72 b 142 226 192 72 142 136 b 450 685 142 486 294 685 b 589 572 568 685 589 636 b 482 264 589 499 539 264 b 464 290 471 264 464 272 b 469 322 464 300 467 311 l 532 589 l 454 597 l 449 576 b 403 600 439 590 421 600 b 214 276 274 600 214 340 b 288 168 214 231 243 168 b 396 200 333 168 378 183 b 443 189 407 193 421 189 b 682 572 564 189 682 364 b 433 774 682 747 544 774 b -11 211 279 774 -11 604 b 240 -53 -11 21 121 -53 b 558 99 346 -53 485 -12 b 565 114 561 103 565 107 b 547 138 565 118 561 126 z m 375 257 b 354 250 368 253 361 250 b 304 294 310 250 304 263 b 408 542 304 368 344 542 b 438 532 417 542 429 540 l 379 300 b 375 271 375 289 375 279 z "},"ã":{"ha":699,"x_min":0,"x_max":0,"o":"m 440 694 l 432 658 b 339 693 407 679 372 693 b -25 168 61 693 -25 407 b 147 -8 -25 86 14 -8 b 336 106 232 -8 294 49 b 506 0 354 33 415 0 b 835 249 614 0 771 185 l 788 249 b 604 126 732 204 660 126 b 535 179 549 126 535 149 b 540 222 535 192 538 207 l 640 694 z m 350 615 b 418 590 369 615 396 610 l 340 222 b 332 176 336 206 333 190 b 243 107 306 138 275 107 b 163 206 208 107 163 122 b 350 615 163 394 246 615 z m 667 931 b 579 899 647 910 614 899 b 350 944 499 899 451 944 b 118 808 244 944 163 897 l 126 806 b 218 842 151 829 182 842 b 451 790 294 842 360 790 b 675 929 557 790 660 864 z "},"b":{"ha":597,"x_min":0,"x_max":0,"o":"m 138 944 l -17 222 b -25 154 -22 197 -25 174 b 204 -4 -25 35 67 -4 b 572 521 453 -4 572 303 b 396 697 572 603 529 697 b 276 657 350 697 308 681 l 343 972 z m 417 511 b 233 94 417 411 347 94 b 172 146 192 94 172 104 b 183 222 172 164 176 189 l 263 594 b 338 614 275 604 324 614 b 417 511 372 614 417 594 z "},"c":{"ha":500,"x_min":0,"x_max":0,"o":"m 406 557 b 450 565 424 563 438 565 b 485 557 467 565 478 561 b 492 603 490 575 492 588 b 339 699 492 679 414 699 b -18 228 69 699 -18 431 b 172 0 -18 64 57 0 b 560 249 418 0 493 174 l 513 249 b 271 118 449 176 369 118 b 169 267 186 118 169 185 b 361 643 169 417 244 643 b 413 596 392 643 413 629 b 406 557 413 585 410 572 z "},"ç":{"ha":500,"x_min":0,"x_max":0,"o":"m 129 -165 b 201 -149 144 -158 165 -149 b 256 -199 240 -149 256 -172 b 214 -257 256 -226 238 -257 b 111 -219 175 -257 168 -219 b 56 -264 85 -219 68 -242 b 204 -303 96 -285 133 -303 b 371 -150 285 -303 371 -250 b 285 -81 371 -107 343 -81 b 211 -92 264 -81 239 -85 l 249 0 b 560 249 353 8 472 113 l 513 249 b 271 118 449 176 369 118 b 169 267 186 118 169 185 b 361 643 169 417 244 643 b 413 596 392 643 413 629 b 406 557 413 585 410 572 b 450 565 424 563 438 565 b 485 557 467 565 478 561 b 492 603 490 575 492 588 b 339 699 492 679 414 699 b -18 228 69 699 -18 431 b 189 0 -18 100 36 0 z "},"¸":{"ha":1157,"x_min":0,"x_max":0,"o":"m 417 -150 b 331 -81 417 -107 389 -81 b 257 -92 310 -81 285 -85 l 297 8 l 249 40 l 175 -165 b 247 -149 190 -158 211 -149 b 301 -199 286 -149 301 -174 b 260 -257 301 -228 283 -257 b 157 -219 221 -257 214 -219 b 101 -264 131 -219 114 -242 b 250 -303 142 -285 179 -303 b 417 -150 331 -303 417 -250 z "},":":{"ha":371,"x_min":0,"x_max":0,"o":"m 57 188 b 167 78 57 126 106 78 b 278 188 228 78 278 126 b 167 299 278 249 228 299 b 57 188 106 299 57 249 z m 126 521 b 236 411 126 460 175 411 b 347 521 297 411 347 460 b 236 632 347 582 297 632 b 126 521 175 632 126 582 z "},",":{"ha":300,"x_min":0,"x_max":0,"o":"m 33 104 b 99 3 33 58 63 26 b 117 -25 111 -6 117 -15 b 44 -151 117 -76 44 -101 b 57 -175 44 -160 47 -168 b 238 110 171 -96 238 26 b 143 215 238 171 204 215 b 33 104 82 215 33 165 z "},"d":{"ha":708,"x_min":0,"x_max":0,"o":"m 493 944 l 432 658 b 339 693 407 679 372 693 b -25 168 61 693 -25 407 b 147 -8 -25 86 14 -8 b 336 106 232 -8 294 49 b 504 0 354 33 414 0 b 833 249 613 0 769 185 l 786 249 b 603 126 731 204 658 126 b 533 178 549 126 533 147 b 540 222 533 192 538 207 l 699 972 z m 350 615 b 418 590 369 615 396 610 l 340 222 b 332 176 336 206 333 190 b 243 107 306 138 275 107 b 163 206 208 107 163 122 b 350 615 163 394 246 615 z "},"¨":{"ha":544,"x_min":0,"x_max":0,"o":"m 78 881 b 163 796 78 833 115 796 b 247 881 208 796 247 833 b 163 965 247 926 208 965 b 78 881 115 965 78 926 z m 328 881 b 413 796 328 833 365 796 b 497 881 458 796 497 833 b 413 965 497 926 458 965 b 328 881 365 965 328 926 z "},"ı":{"ha":383,"x_min":0,"x_max":0,"o":"m 99 694 l 0 222 b -8 151 -6 196 -8 174 b 164 0 -8 47 56 0 b 493 249 272 0 429 185 l 446 249 b 263 126 390 204 318 126 b 193 178 208 126 193 147 b 200 222 193 192 196 207 l 300 694 z "},"e":{"ha":493,"x_min":0,"x_max":0,"o":"m 163 219 b 167 279 163 236 164 257 b 481 563 299 296 481 393 b 303 707 481 660 417 707 b -25 221 50 707 -25 397 b 181 0 -25 101 47 0 b 572 283 360 0 493 140 l 510 283 b 276 100 461 181 344 100 b 163 219 222 100 163 128 z m 397 556 b 178 346 396 457 306 347 b 349 633 207 476 271 633 b 397 556 390 633 397 585 z "},"é":{"ha":503,"x_min":0,"x_max":0,"o":"m 163 219 b 167 279 163 236 164 257 b 481 563 299 296 481 393 b 303 707 481 660 417 707 b -25 221 50 707 -25 397 b 181 0 -25 101 47 0 b 572 283 360 0 493 140 l 510 283 b 276 100 461 181 344 100 b 163 219 222 100 163 128 z m 397 556 b 178 346 396 457 306 347 b 349 633 207 476 271 633 b 397 556 390 633 397 585 z m 283 779 l 388 779 l 556 1042 l 410 1042 z "},"ê":{"ha":493,"x_min":0,"x_max":0,"o":"m 163 219 b 167 279 163 236 164 257 b 481 563 299 296 481 393 b 303 707 481 660 417 707 b -25 221 50 707 -25 397 b 181 0 -25 101 47 0 b 572 283 360 0 493 140 l 510 283 b 276 100 461 181 344 100 b 163 219 222 100 163 128 z m 519 779 l 436 1042 l 407 1042 l 113 779 l 174 779 l 392 890 l 475 779 z m 397 556 b 178 346 396 457 306 347 b 349 633 207 476 271 633 b 397 556 390 633 397 585 z "},"ë":{"ha":493,"x_min":0,"x_max":0,"o":"m 163 219 b 167 279 163 236 164 257 b 481 563 299 296 481 393 b 303 707 481 660 417 707 b -25 221 50 707 -25 397 b 181 0 -25 101 47 0 b 572 283 360 0 493 140 l 510 283 b 276 100 461 181 344 100 b 163 219 222 100 163 128 z m 397 556 b 178 346 396 457 306 347 b 349 633 207 476 271 633 b 397 556 390 633 397 585 z m 100 881 b 185 796 100 833 138 796 b 269 881 231 796 269 833 b 185 965 269 926 231 965 b 100 881 138 965 100 926 z m 350 881 b 435 796 350 833 388 796 b 519 881 481 796 519 833 b 435 965 519 926 481 965 b 350 881 388 965 350 926 z "},"è":{"ha":493,"x_min":0,"x_max":0,"o":"m 163 219 b 167 279 163 236 164 257 b 481 563 299 296 481 393 b 303 707 481 660 417 707 b -25 221 50 707 -25 397 b 181 0 -25 101 47 0 b 572 283 360 0 493 140 l 510 283 b 276 100 461 181 344 100 b 163 219 222 100 163 128 z m 397 556 b 178 346 396 457 306 347 b 349 633 207 476 271 633 b 397 556 390 633 397 585 z m 235 779 l 339 779 l 299 1042 l 153 1042 z "},"…":{"ha":975,"x_min":0,"x_max":0,"o":"m 43 104 b 153 -6 43 43 92 -6 b 264 104 214 -6 264 43 b 153 215 264 165 214 215 b 43 104 92 215 43 165 z m 369 104 b 479 -6 369 43 418 -6 b 590 104 540 -6 590 43 b 479 215 590 165 540 215 b 369 104 418 215 369 165 z m 710 104 b 819 -6 710 43 758 -6 b 931 104 881 -6 931 43 b 819 215 931 165 881 215 b 710 104 758 215 710 165 z "},"!":{"ha":311,"x_min":0,"x_max":0,"o":"m 208 321 l 389 972 l 189 972 l 90 321 z m 222 111 b 113 221 222 172 174 221 b 1 111 51 221 1 172 b 113 0 1 50 51 0 b 222 111 174 0 222 50 z "},"¡":{"ha":304,"x_min":0,"x_max":0,"o":"m 96 307 l -85 -344 l 115 -344 l 214 307 z m 82 517 b 192 407 82 456 131 407 b 303 517 253 407 303 456 b 192 628 303 578 253 628 b 82 517 131 628 82 578 z "},"f":{"ha":376,"x_min":0,"x_max":0,"o":"m 539 833 b 543 890 542 850 543 868 b 379 1040 543 981 464 1040 b 126 804 288 1040 168 1003 l -42 11 b -281 -197 -174 -29 -281 -69 b -117 -347 -281 -287 -201 -347 b 132 -111 -26 -347 89 -310 l 292 639 l 394 639 l 404 694 l 303 694 l 326 804 b 424 918 346 897 393 918 b 476 871 451 918 476 903 b 474 833 476 858 475 847 z m -204 -178 b -51 -35 -204 -103 -139 -64 l -69 -115 b -149 -224 -87 -197 -119 -224 b -204 -178 -179 -224 -204 -197 z "},"ﬀ":{"ha":782,"x_min":0,"x_max":0,"o":"m -79 -347 b 110 -260 -18 -347 56 -331 b 260 -347 132 -312 181 -347 b 513 -111 351 -347 471 -310 l 669 639 l 807 639 l 819 694 l 681 694 l 706 808 b 800 918 726 901 769 918 b 853 871 828 918 853 903 b 850 833 853 858 851 847 l 915 833 b 919 890 918 850 919 868 b 756 1040 919 981 840 1040 b 565 953 694 1040 621 1024 b 417 1040 539 1007 479 1040 b 164 804 325 1040 206 1003 l -3 11 b -243 -197 -135 -29 -243 -69 b -79 -347 -243 -287 -164 -347 z m 331 639 l 468 639 l 350 76 l 207 51 z m 147 -196 b 200 17 157 -172 167 -143 l 343 43 l 310 -115 b 228 -224 292 -197 254 -224 b 147 -196 192 -224 160 -218 z m 514 871 b 503 804 514 849 508 828 l 479 694 l 342 694 l 367 808 b 461 918 388 901 431 918 b 514 871 489 918 514 903 z m -158 -178 b -4 -35 -158 -103 -92 -64 l -21 -115 b -103 -224 -37 -197 -75 -224 b -158 -178 -133 -224 -158 -197 z "},"ﬃ":{"ha":1018,"x_min":0,"x_max":0,"o":"m 635 694 l 661 808 b 803 960 694 956 779 960 b 847 913 832 960 846 949 l 836 914 b 793 843 806 914 793 879 b 888 768 793 783 831 768 b 986 871 932 768 986 810 b 985 890 986 878 986 883 b 740 1040 961 1029 869 1040 b 522 946 676 1040 586 1022 b 369 1040 497 1004 435 1040 b 117 804 278 1040 158 1003 l -50 11 b -290 -197 -182 -29 -290 -69 b -126 -347 -290 -287 -211 -347 b 65 -256 -64 -347 11 -329 b 215 -347 90 -312 144 -347 b 468 -111 307 -347 426 -310 l 624 639 l 756 639 l 669 222 b 661 151 664 196 661 172 b 833 0 661 47 726 0 b 1163 249 942 0 1099 185 l 1115 249 b 932 126 1060 204 988 126 b 863 178 878 126 863 147 b 869 222 863 192 867 207 l 968 694 z m 286 639 l 424 639 l 304 75 l 161 50 z m 104 -186 b 126 -111 111 -164 119 -139 l 153 11 l 297 42 l 265 -115 b 183 -232 249 -197 207 -232 b 104 -192 126 -232 104 -211 z m 464 833 b 435 694 463 824 460 814 l 297 694 l 319 808 b 414 918 338 901 383 918 b 467 871 442 918 467 903 b 464 833 467 858 465 847 z m -206 -178 b -51 -35 -206 -103 -139 -64 l -68 -115 b -150 -224 -85 -197 -122 -224 b -206 -178 -181 -224 -206 -197 z "},"ﬄ":{"ha":1063,"x_min":0,"x_max":0,"o":"m 706 1042 b 521 951 644 1042 574 1024 b 371 1040 494 1007 433 1040 b 118 804 279 1040 160 1003 l -49 11 b -289 -197 -181 -29 -289 -69 b -125 -347 -289 -287 -210 -347 b 53 -272 -68 -347 0 -332 b 217 -347 90 -319 158 -347 b 469 -111 306 -347 428 -310 l 624 639 l 757 639 l 768 694 l 635 694 l 669 843 b 764 953 692 936 733 953 b 853 931 782 953 817 946 l 703 222 b 694 151 697 196 694 172 b 867 0 694 47 760 0 b 1196 249 975 0 1132 185 l 1149 249 b 965 126 1093 204 1021 126 b 896 178 911 126 896 147 b 903 222 896 192 899 207 l 1054 942 b 706 1042 925 1008 831 1042 z m 286 639 l 425 639 l 307 75 l 161 51 z m 171 -229 b 96 -208 149 -229 114 -225 b 128 -111 108 -182 119 -149 l 153 11 l 300 42 l 267 -115 b 171 -229 249 -197 200 -229 z m 436 694 l 297 694 l 321 808 b 415 918 340 901 385 918 b 465 854 438 918 465 907 b 460 804 465 840 464 824 z m -204 -178 b -50 -35 -204 -103 -137 -64 l -67 -115 b -149 -224 -83 -197 -121 -224 b -204 -178 -179 -224 -204 -197 z "},"ﬁ":{"ha":779,"x_min":0,"x_max":0,"o":"m 617 768 b 715 871 661 768 715 808 b 433 1040 715 1021 558 1040 b 128 804 342 1040 169 1003 l -39 11 b -279 -197 -171 -29 -279 -69 b -115 -347 -279 -287 -200 -347 b 138 -111 -24 -347 96 -310 l 296 639 l 436 639 l 447 694 l 307 694 l 331 808 b 501 960 347 886 414 960 b 576 913 540 960 575 949 b 564 914 572 914 567 914 b 522 843 539 914 522 879 b 617 768 522 783 560 768 z m -203 -178 b -49 -35 -203 -103 -136 -64 l -65 -115 b -147 -224 -82 -197 -119 -224 b -203 -178 -178 -224 -203 -197 z m 494 694 l 396 222 b 388 151 390 196 388 174 b 560 0 388 47 451 0 b 889 249 668 0 825 185 l 842 249 b 658 126 786 204 714 126 b 589 178 604 126 589 147 b 596 222 589 192 592 207 l 696 694 z "},"ﬂ":{"ha":804,"x_min":0,"x_max":0,"o":"m -192 -178 b -37 -35 -192 -103 -125 -64 l -54 -115 b -136 -224 -71 -197 -108 -224 b -192 -178 -167 -224 -192 -197 z m 760 944 b 392 1040 635 994 517 1040 b 139 804 301 1040 181 1003 l -28 11 b -268 -197 -160 -29 -268 -69 b -104 -347 -268 -287 -189 -347 b 149 -111 -12 -347 107 -310 l 307 639 l 436 639 l 447 694 l 318 694 l 349 843 b 443 953 368 936 413 953 b 557 931 461 953 521 946 l 407 222 b 399 151 401 196 399 172 b 571 0 399 47 464 0 b 900 249 679 0 836 185 l 853 249 b 669 126 797 204 725 126 b 600 178 615 126 600 147 b 607 222 600 192 603 207 z "},"g":{"ha":688,"x_min":0,"x_max":0,"o":"m 433 694 l 418 628 b 308 693 399 665 358 693 b -35 183 39 693 -35 375 b 138 -11 -35 101 4 -11 b 297 56 201 -11 256 18 l 283 -7 b 57 -212 158 -53 57 -99 b 213 -347 57 -303 128 -347 b 463 -111 304 -347 421 -310 l 486 0 b 711 182 596 40 693 92 l 717 292 b 503 79 671 188 592 125 l 633 694 z m 324 615 b 403 556 347 615 381 597 l 321 171 b 238 122 294 143 265 122 b 136 210 176 122 136 143 b 324 615 136 329 189 615 z m 133 -193 b 269 -74 133 -139 190 -104 l 261 -115 b 181 -239 244 -197 208 -239 b 133 -193 150 -239 133 -212 z "},"`":{"ha":279,"x_min":0,"x_max":0,"o":"m 115 779 l 219 779 l 179 1042 l 33 1042 z "},"h":{"ha":715,"x_min":0,"x_max":0,"o":"m 608 488 b 611 521 611 499 611 510 b 451 694 611 614 526 694 b 271 621 392 694 328 661 l 346 972 l 140 944 l -61 0 l 139 0 l 258 561 b 344 590 286 581 311 590 b 408 508 382 590 408 558 b 404 472 408 497 407 485 l 351 222 b 343 151 346 196 343 174 b 515 0 343 47 407 0 b 844 249 624 0 781 185 l 797 249 b 614 126 742 204 669 126 b 544 178 560 126 544 147 b 551 222 544 190 547 206 z "},"-":{"ha":403,"x_min":0,"x_max":0,"o":"m 329 418 l 51 418 l 26 308 l 306 308 z "},"i":{"ha":374,"x_min":0,"x_max":0,"o":"m 89 694 l -11 222 b -19 151 -17 196 -19 172 b 154 0 -19 47 47 0 b 483 249 263 0 419 185 l 436 249 b 253 126 381 204 308 126 b 183 179 197 126 183 149 b 189 222 183 192 186 207 l 289 694 z m 115 878 b 225 768 115 817 164 768 b 336 878 286 768 336 817 b 225 989 336 939 286 989 b 115 878 164 989 115 939 z "},"ĳ":{"ha":690,"x_min":0,"x_max":0,"o":"m 449 694 l 303 11 b 64 -197 171 -28 64 -69 b 228 -347 64 -287 143 -347 b 478 -111 319 -347 436 -310 l 506 22 b 726 182 614 53 708 94 l 732 292 b 519 86 685 189 606 128 l 649 694 z m 303 694 l 104 694 l -43 0 l 156 0 z m 122 878 b 232 768 122 817 171 768 b 343 878 293 768 343 817 b 232 989 343 939 293 989 b 122 878 171 989 122 939 z m 464 881 b 574 771 464 819 513 771 b 685 881 635 771 685 819 b 574 992 685 942 635 992 b 464 881 513 992 464 942 z m 140 -178 b 293 -35 140 -103 206 -64 l 276 -115 b 196 -224 260 -197 224 -224 b 140 -178 165 -224 140 -197 z "},"í":{"ha":354,"x_min":0,"x_max":0,"o":"m 99 694 l 0 222 b -8 151 -6 196 -8 174 b 164 0 -8 47 56 0 b 493 249 272 0 429 185 l 446 249 b 263 126 390 204 318 126 b 193 178 208 126 193 147 b 200 222 193 192 196 207 l 300 694 z m 160 779 l 264 779 l 432 1042 l 286 1042 z "},"î":{"ha":374,"x_min":0,"x_max":0,"o":"m 99 694 l 0 222 b -8 151 -6 196 -8 174 b 164 0 -8 47 56 0 b 493 249 272 0 429 185 l 446 249 b 263 126 390 204 318 126 b 193 178 208 126 193 147 b 200 222 193 192 196 207 l 300 694 z m 397 779 l 314 1042 l 285 1042 l -10 779 l 51 779 l 269 890 l 353 779 z "},"ï":{"ha":374,"x_min":0,"x_max":0,"o":"m 99 694 l 0 222 b -8 151 -6 196 -8 174 b 164 0 -8 47 56 0 b 493 249 272 0 429 185 l 446 249 b 263 126 390 204 318 126 b 193 178 208 126 193 147 b 200 222 193 192 196 207 l 300 694 z m 28 881 b 113 796 28 833 65 796 b 197 881 158 796 197 833 b 113 965 197 926 158 965 b 28 881 65 965 28 926 z m 278 881 b 363 796 278 833 315 796 b 447 881 408 796 447 833 b 363 965 447 926 408 965 b 278 881 315 965 278 926 z "},"ì":{"ha":374,"x_min":0,"x_max":0,"o":"m 99 694 l 0 222 b -8 151 -6 196 -8 174 b 164 0 -8 47 56 0 b 493 249 272 0 429 185 l 446 249 b 263 126 390 204 318 126 b 193 178 208 126 193 147 b 200 222 193 192 196 207 l 300 694 z m 175 779 l 279 779 l 239 1042 l 93 1042 z "},"j":{"ha":307,"x_min":0,"x_max":0,"o":"m 75 694 l -71 11 b -310 -197 -201 -28 -310 -69 b -146 -347 -310 -287 -231 -347 b 104 -111 -54 -347 63 -310 l 132 22 b 353 182 240 53 335 94 l 358 292 b 146 86 311 189 232 128 l 275 694 z m 90 881 b 200 771 90 819 139 771 b 311 881 261 771 311 819 b 200 992 311 942 261 992 b 90 881 139 992 90 942 z m -233 -178 b -81 -35 -233 -103 -167 -64 l -97 -115 b -178 -224 -114 -197 -150 -224 b -233 -178 -208 -224 -233 -197 z "},"k":{"ha":679,"x_min":0,"x_max":0,"o":"m 514 694 b 246 486 514 696 350 569 l 350 972 l 144 944 l -57 0 l 143 0 l 222 374 b 311 404 251 393 276 404 b 375 322 349 404 375 372 b 371 286 375 311 374 299 l 356 222 b 346 149 349 196 346 171 b 519 0 346 47 413 0 b 825 249 628 0 761 185 l 778 249 b 618 126 722 204 674 126 b 549 178 564 126 549 147 b 556 222 549 192 551 207 l 575 301 b 579 336 578 313 579 325 b 418 508 579 428 493 508 b 382 504 406 508 394 507 l 664 694 z "},"l":{"ha":397,"x_min":0,"x_max":0,"o":"m 154 944 l 0 222 b -8 151 -6 196 -8 172 b 164 0 -8 47 57 0 b 493 249 272 0 429 185 l 446 249 b 263 126 390 204 318 126 b 193 178 208 126 193 147 b 200 222 193 189 196 201 l 360 972 z "},"m":{"ha":1033,"x_min":0,"x_max":0,"o":"m 949 488 b 951 519 950 499 951 508 b 792 694 951 614 868 694 b 589 603 724 694 650 651 b 451 694 558 657 503 694 b 272 621 392 694 328 661 l 288 694 l 88 694 l -60 0 l 140 0 l 260 561 b 344 590 288 581 311 590 b 408 508 382 590 408 558 b 404 472 408 497 407 485 l 304 0 l 506 0 l 608 488 b 611 517 610 497 611 507 b 604 565 611 533 608 549 b 685 590 631 582 654 590 b 749 508 722 590 749 558 b 744 472 749 497 747 485 l 692 222 b 683 151 686 196 683 174 b 856 0 683 47 747 0 b 1153 256 964 0 1089 181 l 1088 256 b 942 114 1056 196 997 114 b 885 171 897 114 885 139 b 892 222 885 188 888 206 z "},"n":{"ha":699,"x_min":0,"x_max":0,"o":"m 619 488 b 622 521 622 499 622 510 b 463 694 622 614 538 694 b 281 619 401 694 338 661 l 297 694 l 97 694 l -50 0 l 150 0 l 268 561 b 356 590 297 581 322 590 b 419 508 393 590 419 558 b 415 472 419 497 418 485 l 363 222 b 354 151 357 196 354 174 b 526 0 354 47 418 0 b 804 214 635 0 740 150 l 757 214 b 625 126 701 169 681 126 b 556 178 571 126 556 147 b 563 222 556 192 558 207 z "},"ñ":{"ha":699,"x_min":0,"x_max":0,"o":"m 619 488 b 622 521 622 499 622 510 b 463 694 622 614 538 694 b 281 619 401 694 338 661 l 297 694 l 97 694 l -50 0 l 150 0 l 268 561 b 356 590 297 581 322 590 b 419 508 393 590 419 558 b 415 472 419 497 418 485 l 363 222 b 354 151 357 196 354 174 b 526 0 354 47 418 0 b 804 214 635 0 740 150 l 757 214 b 625 126 701 169 681 126 b 556 178 571 126 556 147 b 563 222 556 192 558 207 z m 667 931 b 579 899 647 910 614 899 b 350 944 499 899 451 944 b 118 808 244 944 163 897 l 126 806 b 218 842 151 829 182 842 b 451 790 294 842 360 790 b 675 929 557 790 660 864 z "},"o":{"ha":581,"x_min":0,"x_max":0,"o":"m 356 708 b -10 219 164 708 -10 561 b 203 -8 -10 54 54 -8 b 519 408 342 -8 493 129 b 715 531 600 431 672 476 l 710 560 b 564 492 658 539 629 492 b 524 504 544 492 532 496 b 356 708 521 606 488 708 z m 268 126 b 175 232 214 126 175 149 b 361 626 175 343 231 626 b 419 554 400 626 415 600 b 358 457 382 540 358 497 b 417 394 358 424 376 394 b 268 126 400 260 353 126 z "},"ó":{"ha":601,"x_min":0,"x_max":0,"o":"m 363 708 b -3 219 171 708 -3 561 b 210 -8 -3 54 61 -8 b 526 408 349 -8 500 129 b 722 531 607 431 679 476 l 717 560 b 571 492 665 539 636 492 b 531 504 551 492 539 496 b 363 708 528 606 494 708 z m 275 126 b 182 232 221 126 182 149 b 368 626 182 343 238 626 b 426 554 407 626 422 600 b 365 457 389 540 365 497 b 424 394 365 424 383 394 b 275 126 407 260 360 126 z m 300 779 l 404 779 l 572 1042 l 426 1042 z "},"ô":{"ha":581,"x_min":0,"x_max":0,"o":"m 356 708 b -10 219 164 708 -10 561 b 203 -8 -10 54 54 -8 b 519 408 342 -8 493 129 b 715 531 600 431 672 476 l 710 560 b 564 492 658 539 629 492 b 524 504 544 492 532 496 b 356 708 521 606 488 708 z m 268 126 b 175 232 214 126 175 149 b 361 626 175 343 231 626 b 419 554 400 626 415 600 b 358 457 382 540 358 497 b 417 394 358 424 376 394 b 268 126 400 260 353 126 z m 549 779 l 465 1042 l 436 1042 l 142 779 l 203 779 l 421 890 l 504 779 z "},"ö":{"ha":581,"x_min":0,"x_max":0,"o":"m 356 708 b -10 219 164 708 -10 561 b 203 -8 -10 54 54 -8 b 519 408 342 -8 493 129 b 715 531 600 431 672 476 l 710 560 b 564 492 658 539 629 492 b 524 504 544 492 532 496 b 356 708 521 606 488 708 z m 268 126 b 175 232 214 126 175 149 b 361 626 175 343 231 626 b 419 554 400 626 415 600 b 358 457 382 540 358 497 b 417 394 358 424 376 394 b 268 126 400 260 353 126 z m 144 881 b 229 796 144 833 182 796 b 314 881 275 796 314 833 b 229 965 314 926 275 965 b 144 881 182 965 144 926 z m 394 881 b 479 796 394 833 432 796 b 564 881 525 796 564 833 b 479 965 564 926 525 965 b 394 881 432 965 394 926 z "},"ò":{"ha":581,"x_min":0,"x_max":0,"o":"m 356 708 b -10 219 164 708 -10 561 b 203 -8 -10 54 54 -8 b 519 408 342 -8 493 129 b 715 531 600 431 672 476 l 710 560 b 564 492 658 539 629 492 b 524 504 544 492 532 496 b 356 708 521 606 488 708 z m 268 126 b 175 232 214 126 175 149 b 361 626 175 343 231 626 b 419 554 400 626 415 600 b 358 457 382 540 358 497 b 417 394 358 424 376 394 b 268 126 400 260 353 126 z m 279 779 l 383 779 l 343 1042 l 197 1042 z "},"õ":{"ha":581,"x_min":0,"x_max":0,"o":"m 356 708 b -10 219 164 708 -10 561 b 203 -8 -10 54 54 -8 b 519 408 342 -8 493 129 b 715 531 600 431 672 476 l 710 560 b 564 492 658 539 629 492 b 524 504 544 492 532 496 b 356 708 521 606 488 708 z m 268 126 b 175 232 214 126 175 149 b 361 626 175 343 231 626 b 419 554 400 626 415 600 b 358 457 382 540 358 497 b 417 394 358 424 376 394 b 268 126 400 260 353 126 z m 626 931 b 539 899 607 910 574 899 b 310 944 458 899 411 944 b 78 808 204 944 122 897 l 86 806 b 178 842 111 829 142 842 b 411 790 254 842 319 790 b 635 929 517 790 619 864 z "},"p":{"ha":632,"x_min":0,"x_max":0,"o":"m 88 694 l -133 -347 l 76 -297 l 149 43 b 279 1 190 17 233 1 b 583 401 421 1 540 103 b 592 499 589 438 592 469 b 379 693 592 642 524 693 b 282 668 344 693 311 683 l 288 694 z m 257 104 b 167 129 235 104 200 104 l 267 596 b 346 625 293 614 319 625 b 424 525 390 625 424 608 b 406 385 424 492 418 446 b 257 104 360 164 326 104 z "},".":{"ha":365,"x_min":0,"x_max":0,"o":"m 43 104 b 153 -6 43 43 92 -6 b 264 104 214 -6 264 43 b 153 215 264 165 214 215 b 43 104 92 215 43 165 z "},"q":{"ha":661,"x_min":0,"x_max":0,"o":"m 451 694 l 443 656 b 335 693 421 689 375 693 b -19 153 142 693 -19 476 b 135 6 -19 51 42 6 b 340 169 214 6 283 75 l 231 -347 l 440 -297 l 651 694 z m 365 632 b 419 574 404 632 419 613 b 407 486 419 551 414 521 l 358 256 b 201 104 301 171 247 104 b 156 197 163 104 156 140 b 365 632 156 399 258 632 z "},"r":{"ha":546,"x_min":0,"x_max":0,"o":"m 103 694 l -44 0 l 156 0 l 271 544 b 367 589 303 574 325 589 b 447 497 408 589 369 497 b 551 606 515 497 551 557 b 451 694 551 658 514 694 b 288 625 393 694 338 664 l 303 694 z "},"˚":{"ha":1157,"x_min":0,"x_max":0,"o":"m 588 990 b 469 864 504 990 469 914 b 567 767 469 811 507 767 b 688 883 653 767 688 822 b 588 990 688 943 656 990 z m 636 879 b 572 815 636 840 615 815 b 525 867 539 815 525 836 b 590 944 525 901 542 944 b 636 879 635 944 636 906 z "},"s":{"ha":564,"x_min":0,"x_max":0,"o":"m 199 681 b 93 361 175 575 143 451 b -12 182 38 357 -12 293 b 225 0 -12 46 65 0 b 469 129 354 0 433 53 b 619 256 525 176 581 225 l 583 303 b 493 213 567 283 532 247 b 494 242 494 222 494 232 b 400 703 494 404 400 474 l 400 722 z m 200 276 b 154 354 200 318 188 343 b 226 581 185 424 204 513 b 292 247 229 407 292 333 b 176 82 292 140 224 82 b 58 200 103 82 58 118 b 108 188 75 192 92 188 b 200 276 157 188 200 224 z "},";":{"ha":383,"x_min":0,"x_max":0,"o":"m 131 460 b 240 350 131 399 179 350 b 351 460 301 350 351 399 b 240 571 351 521 301 571 b 131 460 179 571 131 521 z m 64 126 b 129 25 64 81 93 49 b 147 -3 142 17 147 7 b 75 -129 147 -54 75 -79 b 88 -153 75 -137 78 -146 b 268 132 201 -74 268 49 b 174 238 268 193 235 238 b 64 126 113 238 64 188 z "}," ":{"ha":301,"x_min":0,"x_max":0,"o":""},"t":{"ha":406,"x_min":0,"x_max":0,"o":"m 147 886 l 106 694 l 60 694 l 49 639 l 94 639 b -1 151 71 519 -1 225 b 171 0 -1 47 64 0 b 500 249 279 0 436 185 l 453 249 b 269 126 397 204 325 126 b 200 179 214 126 200 147 b 294 639 200 186 199 200 l 378 639 l 389 694 l 306 694 b 353 914 332 819 353 914 z "},"˜":{"ha":599,"x_min":0,"x_max":0,"o":"m 617 931 b 529 899 597 910 564 899 b 300 944 449 899 401 944 b 68 808 194 944 113 897 l 76 806 b 168 842 101 829 132 842 b 401 790 244 842 310 790 b 625 929 507 790 610 864 z "},"u":{"ha":722,"x_min":0,"x_max":0,"o":"m 460 694 l 360 222 b 351 176 356 206 353 190 b 253 126 317 149 282 126 b 183 179 197 126 183 149 b 189 222 183 192 186 207 l 289 694 l 89 694 l -11 222 b -19 151 -17 196 -19 172 b 154 0 -19 47 47 0 b 354 117 214 0 289 56 b 525 0 367 36 431 0 b 854 249 633 0 790 185 l 807 249 b 624 126 751 204 679 126 b 554 179 568 126 554 149 b 560 222 554 192 557 207 l 660 694 z "},"ú":{"ha":708,"x_min":0,"x_max":0,"o":"m 460 694 l 360 222 b 351 176 356 206 353 190 b 253 126 317 149 282 126 b 183 179 197 126 183 149 b 189 222 183 192 186 207 l 289 694 l 89 694 l -11 222 b -19 151 -17 196 -19 172 b 154 0 -19 47 47 0 b 354 117 214 0 289 56 b 525 0 367 36 431 0 b 854 249 633 0 790 185 l 807 249 b 624 126 751 204 679 126 b 554 179 568 126 554 149 b 560 222 554 192 557 207 l 660 694 z m 332 779 l 436 779 l 604 1042 l 458 1042 z "},"û":{"ha":722,"x_min":0,"x_max":0,"o":"m 460 694 l 360 222 b 351 176 356 206 353 190 b 253 126 317 149 282 126 b 183 179 197 126 183 149 b 189 222 183 192 186 207 l 289 694 l 89 694 l -11 222 b -19 151 -17 196 -19 172 b 154 0 -19 47 47 0 b 354 117 214 0 289 56 b 525 0 367 36 431 0 b 854 249 633 0 790 185 l 807 249 b 624 126 751 204 679 126 b 554 179 568 126 554 149 b 560 222 554 192 557 207 l 660 694 z m 590 779 l 507 1042 l 478 1042 l 183 779 l 244 779 l 463 890 l 546 779 z "},"ü":{"ha":722,"x_min":0,"x_max":0,"o":"m 460 694 l 360 222 b 351 176 356 206 353 190 b 253 126 317 149 282 126 b 183 179 197 126 183 149 b 189 222 183 192 186 207 l 289 694 l 89 694 l -11 222 b -19 151 -17 196 -19 172 b 154 0 -19 47 47 0 b 354 117 214 0 289 56 b 525 0 367 36 431 0 b 854 249 633 0 790 185 l 807 249 b 624 126 751 204 679 126 b 554 179 568 126 554 149 b 560 222 554 192 557 207 l 660 694 z m 436 881 b 521 796 436 833 474 796 b 606 881 567 796 606 833 b 521 965 606 926 567 965 b 436 881 474 965 436 926 z m 186 881 b 271 796 186 833 224 796 b 356 881 317 796 356 833 b 271 965 356 926 317 965 b 186 881 224 965 186 926 z "},"ù":{"ha":722,"x_min":0,"x_max":0,"o":"m 460 694 l 360 222 b 351 176 356 206 353 190 b 253 126 317 149 282 126 b 183 179 197 126 183 149 b 189 222 183 192 186 207 l 289 694 l 89 694 l -11 222 b -19 151 -17 196 -19 172 b 154 0 -19 47 47 0 b 354 117 214 0 289 56 b 525 0 367 36 431 0 b 854 249 633 0 790 185 l 807 249 b 624 126 751 204 679 126 b 554 179 568 126 554 149 b 560 222 554 192 557 207 l 660 694 z m 350 779 l 454 779 l 414 1042 l 268 1042 z "},"v":{"ha":578,"x_min":0,"x_max":0,"o":"m 456 722 b 376 654 410 722 376 683 b 435 576 376 615 394 576 b 464 582 443 576 456 579 b 235 126 464 431 371 126 b 182 171 194 126 182 144 b 189 222 182 186 185 203 l 289 694 l 89 694 l -11 222 b -18 151 -17 196 -18 172 b 154 0 -18 47 47 0 b 544 597 435 0 544 381 b 456 722 544 669 515 722 z "},"w":{"ha":932,"x_min":0,"x_max":0,"o":"m 822 722 b 743 654 776 722 743 683 b 801 576 743 615 761 576 b 831 582 810 576 822 579 b 601 126 831 431 738 126 b 549 171 561 126 549 144 b 556 222 549 186 551 203 l 656 694 l 456 694 l 356 222 b 349 175 351 206 349 189 b 251 126 315 147 281 126 b 182 179 196 126 182 149 b 188 222 182 192 185 207 l 288 694 l 88 694 l -12 222 b -21 151 -18 196 -21 172 b 153 0 -21 47 46 0 b 351 115 211 0 286 56 b 521 0 365 36 426 0 b 911 597 801 0 911 381 b 822 722 911 669 882 722 z "},"x":{"ha":507,"x_min":0,"x_max":0,"o":"m -47 81 b 117 219 7 124 68 179 l 118 215 b 301 0 157 33 179 0 b 631 249 410 0 567 185 l 583 249 b 400 126 528 204 456 126 b 318 215 338 126 331 158 l 300 296 b 503 611 378 375 503 518 b 425 728 503 671 476 728 b 331 660 375 728 331 707 b 396 582 331 617 347 582 b 419 585 403 582 411 583 b 285 368 417 517 351 429 l 214 694 l 14 694 l 104 279 b -74 122 58 232 -31 151 z "},"y":{"ha":708,"x_min":0,"x_max":0,"o":"m 467 694 l 357 181 b 253 126 321 150 283 126 b 183 179 197 126 183 149 b 189 222 183 192 186 207 l 289 694 l 89 694 l -11 222 b -19 151 -17 196 -19 172 b 154 0 -19 47 47 0 b 340 106 210 0 278 49 l 321 11 b 82 -197 189 -28 82 -69 b 246 -347 82 -287 161 -347 b 496 -111 338 -347 454 -310 l 524 22 b 744 182 632 53 726 94 l 750 292 b 538 86 703 189 624 128 l 667 694 z m 158 -178 b 311 -35 158 -103 224 -64 l 294 -115 b 214 -224 278 -197 242 -224 b 158 -178 183 -224 158 -197 z "},"ý":{"ha":708,"x_min":0,"x_max":0,"o":"m 467 694 l 357 181 b 253 126 321 150 283 126 b 183 179 197 126 183 149 b 189 222 183 192 186 207 l 289 694 l 89 694 l -11 222 b -19 151 -17 196 -19 172 b 154 0 -19 47 47 0 b 340 106 210 0 278 49 l 321 11 b 82 -197 189 -28 82 -69 b 246 -347 82 -287 161 -347 b 496 -111 338 -347 454 -310 l 524 22 b 744 182 632 53 726 94 l 750 292 b 538 86 703 189 624 128 l 667 694 z m 328 779 l 432 779 l 600 1042 l 454 1042 z m 158 -178 b 311 -35 158 -103 224 -64 l 294 -115 b 214 -224 278 -197 242 -224 b 158 -178 183 -224 158 -197 z "},"ÿ":{"ha":708,"x_min":0,"x_max":0,"o":"m 467 694 l 357 181 b 253 126 321 150 283 126 b 183 179 197 126 183 149 b 189 222 183 192 186 207 l 289 694 l 89 694 l -11 222 b -19 151 -17 196 -19 172 b 154 0 -19 47 47 0 b 340 106 210 0 278 49 l 321 11 b 82 -197 189 -28 82 -69 b 246 -347 82 -287 161 -347 b 496 -111 338 -347 454 -310 l 524 22 b 744 182 632 53 726 94 l 750 292 b 538 86 703 189 624 128 l 667 694 z m 185 881 b 269 796 185 833 222 796 b 354 881 315 796 354 833 b 269 965 354 926 315 965 b 185 881 222 965 185 926 z m 435 881 b 519 796 435 833 472 796 b 604 881 565 796 604 833 b 519 965 604 926 565 965 b 435 881 472 965 435 926 z m 158 -178 b 311 -35 158 -103 224 -64 l 294 -115 b 214 -224 278 -197 242 -224 b 158 -178 183 -224 158 -197 z "},"z":{"ha":532,"x_min":0,"x_max":0,"o":"m 342 86 b 265 56 342 61 308 56 b 164 58 232 56 196 57 l 529 694 l 156 694 b -7 565 44 694 -7 636 b 58 485 -7 521 19 485 b 146 568 103 485 146 503 b 122 608 146 592 135 608 b 199 639 122 633 156 639 b 300 636 231 639 268 638 l -65 0 l 308 0 b 471 129 419 0 471 58 b 406 210 471 174 444 210 b 317 125 361 210 317 190 b 342 86 317 101 329 86 z "},"€":{"ha":796,"x_min":0,"x_max":0,"o":"m 336 464 b 347 554 338 493 342 524 l 624 554 l 643 624 l 363 624 b 613 976 406 808 494 976 b 708 878 701 976 708 900 b 647 764 708 843 682 774 b 726 728 674 733 704 728 b 824 856 797 728 824 782 b 582 1042 824 990 711 1042 b 143 624 321 1042 194 846 l 50 624 l 31 554 l 129 554 b 118 464 125 524 121 493 l 15 464 l -4 394 l 114 394 l 114 346 b 418 -8 114 61 276 -8 b 732 132 549 -8 649 22 l 729 172 b 515 117 674 129 622 117 b 332 376 365 117 332 194 l 332 394 l 589 394 l 608 464 z "},"=":{"ha":715,"x_min":0,"x_max":0,"o":"m 650 594 l 139 594 l 106 439 l 618 439 z m 589 296 l 78 296 l 44 140 l 557 140 z "},"©":{"ha":815,"x_min":0,"x_max":0,"o":"m 417 672 b 211 467 304 672 211 585 b 414 253 211 351 301 253 b 585 347 482 253 546 289 l 524 388 b 419 325 503 349 463 325 b 288 474 346 325 288 390 b 417 600 288 560 351 600 b 510 542 485 600 507 551 b 517 513 513 532 508 522 l 589 540 b 415 668 571 614 503 668 z m 407 106 b 743 461 590 106 743 263 b 407 815 743 660 590 815 b 71 460 224 815 71 658 b 407 106 71 263 224 106 z m 135 460 b 410 756 135 626 260 756 b 683 460 558 756 683 626 b 410 164 683 293 558 164 b 135 460 260 164 135 293 z "},"®":{"ha":768,"x_min":0,"x_max":0,"o":"m 383 110 b 719 465 567 110 719 267 b 383 819 719 664 567 819 b 47 464 200 819 47 663 b 383 110 47 267 200 110 z m 111 464 b 386 760 111 631 236 760 b 660 464 535 760 660 631 b 386 168 660 297 535 168 b 111 464 236 168 111 297 z m 244 267 l 308 267 l 308 438 l 400 438 l 486 264 l 551 274 l 461 447 b 543 553 510 461 543 504 b 376 671 543 631 472 671 l 246 671 z m 308 614 l 378 614 b 479 551 424 614 479 600 b 381 490 479 500 421 490 l 308 490 z "},"$":{"ha":560,"x_min":0,"x_max":0,"o":"m 153 -37 l 190 -37 l 231 149 b 481 354 375 151 481 222 b 324 567 481 468 394 521 l 374 790 b 418 729 404 778 418 750 b 385 657 418 700 408 671 b 439 625 403 635 417 625 b 506 731 481 625 506 667 b 385 846 506 808 444 836 l 419 997 l 339 997 l 313 850 b 99 668 210 846 99 771 b 246 478 99 579 179 533 l 196 206 b 138 290 165 219 138 250 b 193 393 138 346 154 386 b 133 428 193 411 172 428 b 33 308 79 428 33 381 b 186 150 33 199 101 157 z m 335 325 b 243 200 335 264 310 208 l 294 431 b 335 325 318 401 335 368 z m 231 694 b 303 797 231 736 249 786 l 269 610 b 231 694 246 633 231 660 z "},"+":{"ha":715,"x_min":0,"x_max":0,"o":"m 479 610 l 322 610 l 285 440 l 107 440 l 74 285 l 251 285 l 214 114 l 371 114 l 408 285 l 586 285 l 618 440 l 442 440 z "},"/":{"ha":432,"x_min":0,"x_max":0,"o":"m 410 1042 l 310 1042 l 15 -347 l 115 -347 z "},"|":{"ha":739,"x_min":0,"x_max":0,"o":"m 433 1043 l 304 1043 l 304 -347 l 433 -347 z "},"ˆ":{"ha":585,"x_min":0,"x_max":0,"o":"m 476 779 l 393 1042 l 364 1042 l 69 779 l 131 779 l 349 890 l 432 779 z "},"~":{"ha":599,"x_min":0,"x_max":0,"o":"m 617 931 b 529 899 597 910 564 899 b 300 944 449 899 401 944 b 68 808 194 944 113 897 l 76 806 b 168 842 101 829 132 842 b 401 790 244 842 310 790 b 625 929 507 790 610 864 z "},"¢":{"ha":560,"x_min":0,"x_max":0,"o":"m 176 -37 l 214 -37 l 267 201 b 492 390 403 207 472 274 b 308 296 438 343 383 296 b 288 297 300 296 294 296 l 393 774 l 400 774 b 451 726 431 774 451 760 b 444 688 451 715 449 703 l 524 688 b 531 733 529 706 531 718 b 406 828 531 800 471 824 l 443 997 l 363 997 l 332 826 b 43 439 144 801 43 626 b 219 203 43 297 124 217 z m 189 443 b 317 742 189 554 242 683 l 240 318 b 189 443 204 346 189 397 z "},"ˇ":{"ha":585,"x_min":0,"x_max":0,"o":"m 108 1042 l 192 779 l 221 779 l 515 1042 l 454 1042 l 236 931 l 153 1042 z "},"š":{"ha":564,"x_min":0,"x_max":0,"o":"m 199 681 b 93 361 175 575 143 451 b -12 182 38 357 -12 293 b 225 0 -12 46 65 0 b 469 129 354 0 433 53 b 619 256 525 176 581 225 l 583 303 b 493 213 567 283 532 247 b 494 242 494 222 494 232 b 400 703 494 404 400 474 l 400 722 z m 200 276 b 154 354 200 318 188 343 b 226 581 185 424 204 513 b 292 247 229 407 292 333 b 176 82 292 140 224 82 b 58 200 103 82 58 118 b 108 188 75 192 92 188 b 200 276 157 188 200 224 z m 246 1042 l 329 779 l 358 779 l 653 1042 l 592 1042 l 374 931 l 290 1042 z "},"ž":{"ha":532,"x_min":0,"x_max":0,"o":"m 342 86 b 265 56 342 61 308 56 b 164 58 232 56 196 57 l 529 694 l 156 694 b -7 565 44 694 -7 636 b 58 485 -7 521 19 485 b 146 568 103 485 146 503 b 122 608 146 592 135 608 b 199 639 122 633 156 639 b 300 636 231 639 268 638 l -65 0 l 308 0 b 471 129 419 0 471 58 b 406 210 471 174 444 210 b 317 125 361 210 317 190 b 342 86 317 101 329 86 z m 215 1042 l 299 779 l 328 779 l 622 1042 l 561 1042 l 343 931 l 260 1042 z "},"#":{"ha":915,"x_min":0,"x_max":0,"o":"m 426 -37 l 506 -37 l 547 154 l 700 154 l 728 296 l 579 296 l 614 453 l 761 453 l 789 594 l 644 594 l 735 997 l 613 997 l 540 594 l 394 594 l 485 997 l 363 997 l 290 594 l 153 594 l 124 453 l 265 453 l 236 296 l 92 296 l 63 154 l 211 154 l 176 -37 l 256 -37 l 297 154 l 461 154 z m 364 453 l 515 453 l 486 296 l 329 296 z "},"•":{"ha":603,"x_min":0,"x_max":0,"o":"m 167 371 b 300 238 167 297 226 238 b 435 371 374 238 435 297 b 300 506 435 444 374 506 b 167 371 226 506 167 444 z "},"¦":{"ha":739,"x_min":0,"x_max":0,"o":"m 433 308 l 304 308 l 304 -347 l 433 -347 z m 433 418 l 433 1043 l 304 1043 l 304 418 z "},"‡":{"ha":688,"x_min":0,"x_max":0,"o":"m 525 1042 l 425 1042 l 329 594 l 128 594 l 94 439 l 297 439 l 267 296 l 67 296 l 33 140 l 233 140 l 131 -347 l 231 -347 l 333 140 l 546 140 l 578 296 l 367 296 l 397 439 l 607 439 l 639 594 l 429 594 z "},"†":{"ha":688,"x_min":0,"x_max":0,"o":"m 525 1042 l 425 1042 l 329 594 l 128 594 l 94 439 l 297 439 l 131 -347 l 231 -347 l 397 439 l 607 439 l 639 594 l 429 594 z "},"[":{"ha":556,"x_min":0,"x_max":0,"o":"m 253 -261 l 85 -261 l 343 957 l 511 957 l 529 1042 l 261 1042 l -33 -347 l 235 -347 z "},"–":{"ha":489,"x_min":0,"x_max":0,"o":"m 413 418 l 51 418 l 26 308 l 389 308 z "},"—":{"ha":617,"x_min":0,"x_max":0,"o":"m 538 418 l 51 418 l 26 308 l 514 308 z "},"·":{"ha":603,"x_min":0,"x_max":0,"o":"m 167 371 b 300 238 167 297 226 238 b 435 371 374 238 435 297 b 300 506 435 444 374 506 b 167 371 226 506 167 444 z "},"¬":{"ha":617,"x_min":0,"x_max":0,"o":"m 554 418 l 51 418 l 26 308 l 375 308 l 326 71 l 483 71 z "},"_":{"ha":617,"x_min":0,"x_max":0,"o":"m 561 110 l 75 110 l 50 0 l 538 0 z "},"−":{"ha":617,"x_min":0,"x_max":0,"o":"m 538 418 l 51 418 l 26 308 l 514 308 z "},"±":{"ha":740,"x_min":0,"x_max":0,"o":"m 521 754 l 364 754 l 326 585 l 149 585 l 115 429 l 293 429 l 256 258 l 413 258 l 450 429 l 628 429 l 660 585 l 483 585 z m 578 204 l 68 204 l 43 94 l 554 94 z "},"÷":{"ha":656,"x_min":0,"x_max":0,"o":"m 204 111 b 314 1 204 50 253 1 b 425 111 375 1 425 50 b 314 222 425 172 375 222 b 204 111 253 222 204 172 z m 288 576 b 397 467 288 515 336 467 b 508 576 458 467 508 515 b 397 688 508 638 458 688 b 288 576 336 688 288 638 z m 582 396 l 96 396 l 71 286 l 558 286 z "},"'":{"ha":274,"x_min":0,"x_max":0,"o":"m 21 779 l 125 779 l 251 1042 l 106 1042 z "},"Ÿ":{"ha":861,"x_min":0,"x_max":0,"o":"m 608 0 l 700 428 l 969 1035 l 878 1035 l 672 542 l 551 1039 b 496 1042 533 1040 515 1042 b 8 681 264 1042 8 865 b 157 546 8 581 61 546 b 138 640 156 558 138 569 b 344 949 138 793 215 901 l 478 428 l 386 0 z m 869 1228 b 954 1143 869 1181 907 1143 b 1039 1228 1000 1143 1039 1181 b 954 1313 1039 1274 1000 1313 b 869 1228 907 1313 869 1274 z m 619 1228 b 704 1143 619 1181 657 1143 b 789 1228 750 1143 789 1181 b 704 1313 789 1274 750 1313 b 619 1228 657 1313 619 1274 z "},"Š":{"ha":792,"x_min":0,"x_max":0,"o":"m 756 875 b 522 1042 756 1031 596 1042 b 192 783 357 1042 192 929 b 492 258 192 576 492 519 b 339 60 492 156 449 60 b 201 193 274 60 201 100 b 364 346 201 289 251 336 b 251 417 353 396 314 417 b 47 217 144 417 47 347 b 354 -7 47 17 243 -7 b 722 315 578 -7 722 119 b 410 856 722 625 410 638 b 539 976 410 932 463 976 b 640 883 613 976 640 932 b 578 764 640 838 615 786 b 640 735 596 743 618 735 b 756 875 713 735 756 796 z m 486 1389 l 569 1126 l 599 1126 l 893 1389 l 832 1389 l 614 1278 l 531 1389 z "},"’":{"ha":424,"x_min":0,"x_max":0,"o":"m 117 942 b 178 854 117 903 143 875 b 194 831 189 847 194 839 l 126 733 b 139 714 126 726 129 719 b 307 947 244 782 307 875 b 218 1039 307 1000 275 1039 b 117 942 161 1039 117 994 z "},"‘":{"ha":424,"x_min":0,"x_max":0,"o":"m 307 942 b 206 1039 307 994 263 1039 b 117 947 149 1039 117 1000 b 285 714 117 875 179 782 b 297 733 294 719 297 726 l 229 831 b 246 854 229 839 235 847 b 307 942 281 875 307 903 z "},"”":{"ha":707,"x_min":0,"x_max":0,"o":"m 106 942 b 167 854 106 903 132 875 b 183 831 178 847 183 839 l 115 733 b 128 714 115 726 118 719 b 296 947 233 782 296 875 b 207 1039 296 1000 264 1039 b 106 942 150 1039 106 994 z m 411 942 b 472 854 411 903 438 875 b 489 831 483 847 489 839 l 421 733 b 433 714 421 726 424 719 b 601 947 539 782 601 875 b 513 1039 601 1000 569 1039 b 411 942 456 1039 411 994 z "},"“":{"ha":707,"x_min":0,"x_max":0,"o":"m 601 942 b 500 1039 601 994 557 1039 b 411 947 443 1039 411 1000 b 579 714 411 875 474 782 b 592 733 589 719 592 726 l 524 831 b 540 854 524 839 529 847 b 601 942 575 875 601 903 z m 296 942 b 194 1039 296 994 251 1039 b 106 947 138 1039 106 1000 b 274 714 106 875 168 782 b 286 733 283 719 286 726 l 218 831 b 235 854 218 839 224 847 b 296 942 269 875 296 903 z "},"„":{"ha":707,"x_min":0,"x_max":0,"o":"m 106 106 b 167 18 106 67 132 39 b 183 -6 178 11 183 3 l 115 -103 b 128 -122 115 -110 118 -117 b 296 111 233 -54 296 39 b 207 203 296 164 264 203 b 106 106 150 203 106 158 z m 411 106 b 472 18 411 67 438 39 b 489 -6 483 11 489 3 l 421 -103 b 433 -122 421 -110 424 -117 b 601 111 539 -54 601 39 b 513 203 601 164 569 203 b 411 106 456 203 411 158 z "},"\"":{"ha":583,"x_min":0,"x_max":0,"o":"m 86 779 l 190 779 l 317 1042 l 171 1042 z m 304 779 l 408 779 l 535 1042 l 389 1042 z "},"Ž":{"ha":736,"x_min":0,"x_max":0,"o":"m 561 108 b 485 78 561 83 528 78 b 283 81 451 78 315 79 l 767 1042 l 290 1042 b 128 913 179 1042 128 983 b 193 832 128 868 154 832 b 281 915 238 832 281 850 b 257 956 281 939 269 956 b 371 986 257 981 328 986 b 510 983 403 986 478 985 l 15 0 l 517 0 b 690 151 628 0 690 81 b 625 232 690 196 664 232 b 536 147 581 232 536 213 b 561 108 536 124 549 108 z m 435 1389 l 518 1126 l 547 1126 l 842 1389 l 781 1389 l 563 1278 l 479 1389 z "},"{":{"ha":489,"x_min":0,"x_max":0,"o":"m 532 1042 l 472 1042 b 250 763 307 1042 250 868 b 260 542 250 692 260 618 b 167 388 260 476 256 388 b 124 392 154 388 140 389 l 107 313 b 151 317 125 315 139 317 b 208 274 196 317 208 299 b 204 243 208 265 207 254 b 42 -194 168 85 42 -64 b 68 -287 42 -226 49 -258 b 226 -346 104 -344 143 -346 l 239 -346 l 251 -283 b 133 -172 165 -283 133 -239 b 299 303 133 -33 299 179 b 282 353 299 325 292 342 b 338 507 315 381 335 426 l 329 744 b 393 936 331 819 343 881 b 519 972 424 969 463 972 z "},"}":{"ha":489,"x_min":0,"x_max":0,"o":"m 42 -346 l 101 -346 b 324 -67 267 -346 324 -172 b 314 154 324 4 314 78 b 407 308 314 219 318 308 b 450 304 419 308 433 307 l 467 383 b 422 379 449 381 435 379 b 365 422 378 379 365 397 b 369 453 365 431 367 442 b 532 890 406 611 532 760 b 506 983 532 922 525 953 b 347 1042 469 1040 431 1042 l 335 1042 l 322 979 b 440 868 408 979 440 935 b 275 393 440 729 275 517 b 292 343 275 371 282 354 b 236 189 258 315 239 269 l 244 -49 b 181 -240 243 -124 231 -185 b 54 -276 150 -274 111 -276 z "},"(":{"ha":607,"x_min":0,"x_max":0,"o":"m 644 1042 b 192 139 369 910 192 501 b 349 -347 192 -50 240 -228 l 394 -307 b 293 101 324 -203 293 -57 b 663 986 293 463 456 883 z "},")":{"ha":574,"x_min":0,"x_max":0,"o":"m -22 -347 b 431 556 253 -215 431 192 b 274 1042 431 744 382 922 l 228 1001 b 329 593 299 897 329 750 b -40 -292 329 231 167 -189 z "},"*":{"ha":715,"x_min":0,"x_max":0,"o":"m 310 1044 l 310 857 l 161 943 l 119 871 l 271 783 l 119 696 l 161 624 l 310 710 l 310 522 l 399 522 l 399 710 l 547 624 l 589 696 l 438 783 l 589 871 l 547 943 l 399 857 l 399 1044 z "},"]":{"ha":556,"x_min":0,"x_max":0,"o":"m 243 956 l 411 956 l 153 -262 l -15 -262 l -33 -347 l 235 -347 l 529 1042 l 261 1042 z "},"\\":{"ha":503,"x_min":0,"x_max":0,"o":"m 353 -347 l 453 -347 l 158 1042 l 58 1042 z "},"‚":{"ha":393,"x_min":0,"x_max":0,"o":"m 106 106 b 167 18 106 67 132 39 b 183 -6 178 11 183 3 l 115 -103 b 128 -122 115 -110 118 -117 b 296 111 233 -54 296 39 b 207 203 296 164 264 203 b 106 106 150 203 106 158 z "},"×":{"ha":715,"x_min":0,"x_max":0,"o":"m 136 493 l 268 361 l 136 229 l 226 140 l 357 271 l 490 139 l 579 229 l 447 361 l 579 493 l 490 583 l 357 450 l 226 582 z "},"™":{"ha":526,"x_min":0,"x_max":0,"o":"m 463 601 l 515 908 l 450 908 l 358 667 l 358 901 l 301 893 l 207 601 l 240 601 l 296 783 l 296 601 l 353 601 l 440 818 l 403 601 z m 149 872 b 232 860 179 868 208 860 b 265 914 258 860 258 897 b 214 907 253 908 235 907 b 110 914 174 907 126 914 b -32 806 7 914 -32 861 b 13 765 -32 776 -17 765 b 7 793 11 769 7 772 b 90 878 7 858 43 876 l 31 601 l 90 601 z "},"ƒ":{"ha":376,"x_min":0,"x_max":0,"o":"m 290 639 l 394 639 l 406 694 l 303 694 l 326 804 b 424 918 346 897 393 918 b 476 871 451 918 476 903 b 474 833 476 858 475 847 l 539 833 b 543 890 542 850 543 868 b 379 1040 543 981 464 1040 b 126 804 286 1040 169 1003 l 103 694 l 19 694 l 8 639 l 92 639 l -42 11 b -281 -197 -174 -29 -281 -69 b -117 -347 -281 -287 -201 -347 b 132 -111 -25 -347 90 -310 z m -204 -178 b -51 -35 -204 -103 -139 -64 l -69 -115 b -149 -224 -87 -197 -119 -224 b -204 -178 -179 -224 -204 -197 z "},"ø":{"ha":581,"x_min":0,"x_max":0,"o":"m 251 -3 b 519 408 375 25 496 163 b 715 531 600 431 672 476 l 710 560 b 564 492 658 539 629 492 b 524 504 544 492 532 496 b 401 703 522 592 496 682 l 474 1042 l 401 1042 l 331 707 b -10 219 149 694 -10 546 b 179 -7 -10 63 47 0 l 107 -347 l 179 -347 z m 175 232 b 310 610 175 326 215 549 l 210 140 b 175 232 188 154 175 182 z m 358 457 b 417 394 358 424 376 394 b 279 128 401 265 357 139 l 385 622 b 419 554 407 613 417 589 b 358 457 382 540 358 497 z "},"Ø":{"ha":914,"x_min":0,"x_max":0,"o":"m 458 -12 b 876 574 710 -12 876 281 b 661 944 876 758 814 892 l 682 1042 l 610 1042 l 593 961 b 496 969 563 967 531 969 b 8 608 264 969 8 793 b 157 474 8 508 61 474 b 138 568 156 486 138 497 b 513 906 138 779 288 906 b 579 896 538 906 560 901 l 413 113 b 351 257 371 129 351 176 b 539 839 351 485 425 689 b 474 850 515 846 494 850 b 176 231 269 850 176 490 b 386 -10 176 44 254 -1 l 315 -347 l 388 -347 z m 715 603 b 483 106 715 347 596 132 l 643 860 b 715 603 703 804 715 704 z "},"Æ":{"ha":1061,"x_min":0,"x_max":0,"o":"m 1056 0 l 1085 147 l 774 147 l 844 479 l 1054 479 l 1082 582 l 867 582 l 942 933 b 1113 889 994 913 1043 889 b 1263 1042 1229 889 1242 981 b 1100 1015 1201 1022 1149 1015 b 850 1043 1003 1015 926 1043 b 365 628 686 1043 506 853 b 283 632 335 631 307 632 b 13 472 140 632 13 557 b 92 385 13 410 51 385 b 176 439 151 385 176 410 b 158 482 176 458 165 482 b 321 554 178 532 238 549 b 117 -1 199 343 117 117 b 303 -157 117 -149 207 -151 b 283 -79 301 -144 283 -150 b 463 554 283 65 358 329 b 650 504 522 550 579 535 l 543 0 z m 663 565 b 490 613 608 586 549 601 b 743 943 568 768 658 897 z "},"&":{"ha":947,"x_min":0,"x_max":0,"o":"m 939 574 b 807 514 915 532 858 514 b 701 521 772 514 740 521 b 433 325 558 521 461 439 l 443 324 b 574 386 469 365 513 386 b 672 379 606 386 638 381 b 421 117 629 175 518 117 b 258 301 332 117 258 200 b 500 581 258 397 324 508 b 317 810 369 639 317 729 b 486 981 317 903 385 981 b 578 878 575 981 578 900 b 517 764 578 843 551 774 b 596 728 543 733 574 728 b 693 856 667 728 693 782 b 438 1042 693 990 567 1042 b 129 790 240 1042 129 917 b 267 579 129 711 172 631 b 15 272 99 544 15 406 b 303 -8 15 129 111 -8 b 736 381 439 -8 631 0 b 947 574 850 400 947 497 z "},"?":{"ha":613,"x_min":0,"x_max":0,"o":"m 590 804 b 368 972 590 897 558 972 b 76 749 158 972 76 843 b 182 632 76 671 128 632 b 283 690 221 632 260 651 b 231 782 244 701 231 750 b 342 897 231 851 289 897 b 418 801 382 897 418 869 b 165 322 418 590 165 518 l 257 322 b 590 804 325 529 590 536 z m 288 111 b 178 221 288 172 239 221 b 67 111 117 221 67 172 b 178 0 67 50 117 0 b 288 111 239 0 288 50 z "},"¿":{"ha":610,"x_min":0,"x_max":0,"o":"m 17 -178 b 240 -343 17 -264 64 -343 b 532 -119 450 -343 532 -214 b 426 -3 532 -42 481 -3 b 325 -61 388 -3 349 -22 b 378 -153 364 -72 378 -121 b 267 -268 378 -222 319 -268 b 190 -172 226 -268 190 -240 b 443 307 190 39 443 111 l 351 307 b 17 -178 263 96 17 81 z m 321 517 b 431 407 321 456 369 407 b 542 517 492 407 542 456 b 431 629 542 579 492 629 b 321 517 369 629 321 579 z "},"ß":{"ha":625,"x_min":0,"x_max":0,"o":"m 313 736 b 410 850 332 829 379 850 b 463 781 446 850 463 835 b 347 626 463 699 404 650 l 322 546 b 422 425 397 526 422 486 b 408 322 422 396 417 361 b 271 85 367 122 328 96 l 253 3 b 299 0 268 1 283 0 b 556 333 411 0 499 54 b 563 396 560 354 563 375 b 428 593 563 479 526 560 b 556 796 511 632 556 717 b 365 972 556 888 494 972 b 113 736 274 972 154 935 l -118 -347 l 92 -297 z "},"<":{"ha":499,"x_min":0,"x_max":0,"o":"m 467 596 l 40 388 l 28 331 l 371 140 l 388 219 l 118 353 l 453 519 z "},">":{"ha":478,"x_min":0,"x_max":0,"o":"m 104 519 l 374 353 l 40 219 l 21 140 l 443 313 l 458 388 l 117 596 z "},"«":{"ha":818,"x_min":0,"x_max":0,"o":"m 467 596 l 40 388 l 28 331 l 371 140 l 388 219 l 118 353 l 453 519 z m 758 596 l 332 388 l 319 331 l 663 140 l 679 219 l 410 353 l 744 519 z "},"»":{"ha":814,"x_min":0,"x_max":0,"o":"m 104 519 l 374 353 l 40 219 l 21 140 l 443 313 l 458 388 l 117 596 z m 413 519 l 682 353 l 349 219 l 329 140 l 751 313 l 767 388 l 425 596 z "},"µ":{"ha":722,"x_min":0,"x_max":0,"o":"m 89 694 l -107 -232 l 103 -182 l 142 0 l 154 0 b 354 117 214 0 289 56 b 525 0 367 36 431 0 b 854 249 633 0 790 185 l 807 249 b 624 126 751 204 679 126 b 554 179 568 126 554 149 b 560 222 554 192 557 207 l 660 694 l 460 694 l 360 222 b 351 176 356 206 353 190 b 253 126 317 149 282 126 b 183 179 197 126 183 149 b 189 222 183 192 186 207 l 289 694 z "},"¶":{"ha":753,"x_min":0,"x_max":0,"o":"m 332 -112 l 439 400 b 499 415 458 404 478 408 l 386 -112 l 517 -112 l 693 711 b 704 811 700 747 704 781 b 447 1040 704 979 586 1040 b 100 683 218 1040 100 856 b 308 400 100 551 168 428 l 201 -112 z m 454 471 l 554 947 b 586 860 574 929 586 903 b 578 792 586 840 583 818 l 511 476 b 463 471 496 472 479 471 z "},"Ð":{"ha":921,"x_min":0,"x_max":0,"o":"m 319 883 l 256 582 l 207 582 l 179 479 l 233 479 l 131 0 l 331 0 l 342 56 b 511 -18 401 4 458 -18 b 896 667 717 -18 896 308 b 496 1042 896 863 817 1042 b 8 681 264 1042 8 865 b 157 546 8 581 61 546 b 138 640 156 558 138 569 b 513 978 138 851 288 978 b 704 706 672 978 704 879 b 438 104 704 439 603 104 b 358 132 411 104 385 113 l 432 479 l 536 479 l 564 582 l 454 582 l 525 911 z "},"ð":{"ha":708,"x_min":0,"x_max":0,"o":"m 393 972 b 451 835 428 926 446 883 l 371 835 l 360 779 l 451 779 b 436 674 450 747 444 713 l 432 657 b 339 693 407 678 372 693 b -25 168 61 693 -25 407 b 147 -8 -25 86 14 -8 b 336 106 232 -8 294 49 b 504 0 354 33 414 0 b 833 249 613 0 769 185 l 786 249 b 603 126 731 204 658 126 b 533 178 549 126 533 147 b 540 222 533 192 538 207 l 615 576 b 629 703 625 624 629 665 b 622 779 629 731 626 757 l 696 779 l 707 835 l 604 835 b 456 972 572 901 515 939 z m 350 615 b 418 590 369 615 396 610 l 340 222 b 332 176 336 206 333 190 b 243 107 306 138 275 107 b 163 206 208 107 163 122 b 350 615 163 394 246 615 z "},"þ":{"ha":632,"x_min":0,"x_max":0,"o":"m -133 -347 l 76 -297 l 169 142 b 279 113 204 122 242 113 b 583 513 421 113 540 214 b 592 610 589 549 592 581 b 379 804 592 753 524 804 b 271 774 340 804 304 792 b 103 972 250 882 179 931 l 40 972 b 100 803 82 917 100 867 b 83 674 100 767 94 724 z m 257 215 b 188 228 240 215 214 215 l 263 576 b 278 714 274 629 278 675 b 346 736 300 728 324 736 b 424 636 390 736 424 719 b 406 496 424 603 418 557 b 257 215 360 275 326 215 z "},"Þ":{"ha":810,"x_min":0,"x_max":0,"o":"m 347 1014 l 313 856 b 8 528 147 796 8 664 b 157 393 8 428 61 393 b 138 488 156 406 138 417 b 297 781 138 625 194 726 l 131 0 l 331 0 l 382 243 l 422 243 b 822 615 671 243 822 439 b 519 888 822 753 729 878 l 553 1042 z m 400 294 b 390 283 396 290 393 288 l 506 825 b 669 636 622 821 669 736 b 413 294 669 483 558 294 z "},"§":{"ha":753,"x_min":0,"x_max":0,"o":"m 729 908 b 542 1042 729 1033 601 1042 b 254 810 410 1042 254 960 b 261 743 254 785 257 764 b 117 558 178 711 117 642 b 367 138 117 372 367 347 b 247 -6 367 53 342 -6 b 142 93 175 -6 142 31 b 254 208 142 169 164 200 b 150 278 239 229 200 278 b 11 104 65 278 11 208 b 247 -75 11 -56 158 -75 b 542 183 425 -75 542 26 l 542 189 b 703 431 644 208 703 313 b 428 851 703 643 428 663 b 556 990 428 913 483 990 b 636 915 614 990 636 954 b 586 819 636 879 617 838 b 636 797 601 803 619 797 b 729 908 694 797 729 846 z m 560 342 b 533 254 560 307 550 275 b 264 615 488 447 264 521 b 290 678 264 640 274 661 b 560 342 371 546 560 506 z "},"­":{"ha":403,"x_min":0,"x_max":0,"o":"m 329 418 l 51 418 l 26 308 l 306 308 z "},"¤":{"ha":694,"x_min":0,"x_max":0,"o":"m 94 683 l 174 604 b 133 479 149 569 133 526 b 174 356 133 433 149 390 l 96 278 l 146 228 l 224 306 b 351 264 260 279 304 264 b 476 304 399 264 442 279 l 553 228 l 603 278 l 526 354 b 568 481 553 390 568 433 b 526 608 568 528 553 572 l 603 685 l 553 735 l 475 657 b 351 697 440 682 397 697 b 225 656 304 697 261 682 l 147 733 z m 351 619 b 490 481 428 619 490 557 b 351 342 490 404 428 342 b 213 481 275 342 213 404 b 351 619 213 557 275 619 z "},"ª":{"ha":479,"x_min":0,"x_max":0,"o":"m 444 1028 l 329 1028 l 325 1007 b 271 1026 310 1018 289 1026 b 60 743 110 1026 60 872 b 158 649 60 699 82 649 b 268 710 208 649 244 679 b 349 653 276 675 301 653 b 432 722 376 653 410 657 b 411 719 425 719 417 719 b 382 747 389 719 382 732 b 386 772 382 756 385 764 z m 271 772 b 215 711 258 735 242 711 b 168 764 194 711 168 719 b 276 985 168 865 217 985 b 317 971 289 985 304 982 z "},"º":{"ha":457,"x_min":0,"x_max":0,"o":"m 364 939 b 338 958 364 954 353 958 b 283 901 311 958 283 928 b 306 871 283 886 289 874 b 222 721 299 803 268 721 b 165 778 189 721 165 733 b 274 992 165 838 194 992 b 310 965 292 992 303 982 b 346 1001 326 971 346 979 b 269 1035 346 1021 308 1035 b 58 771 160 1035 58 954 b 185 647 58 682 99 647 b 364 882 260 647 356 726 b 418 961 396 900 410 935 l 410 976 b 364 932 392 957 385 944 z "},"¹":{"ha":301,"x_min":0,"x_max":0,"o":"m 275 1040 b 71 982 178 986 115 982 l 61 947 l 138 947 l 31 479 l 147 479 z "},"³":{"ha":439,"x_min":0,"x_max":0,"o":"m 179 672 b 114 710 172 699 150 710 b 18 596 51 710 18 667 b 197 475 18 488 132 475 b 404 669 317 475 404 579 b 304 792 404 724 375 771 b 414 931 379 826 414 881 b 272 1040 414 989 365 1040 b 99 931 151 1040 99 982 b 156 863 99 886 124 863 b 218 889 175 863 197 871 b 188 940 196 894 188 922 b 260 1000 188 978 207 1000 b 311 942 293 1000 311 975 b 174 793 311 889 267 815 b 278 653 247 769 278 710 b 179 522 278 586 238 522 b 108 583 138 522 108 533 b 179 672 108 621 114 667 z "},"²":{"ha":417,"x_min":0,"x_max":0,"o":"m 244 565 b 99 578 179 568 133 578 b 386 921 165 679 386 753 b 233 1040 386 993 343 1040 b 67 931 111 1040 67 982 b 124 863 67 886 92 863 b 186 889 143 863 165 871 b 156 940 164 894 156 922 b 221 1000 156 978 167 1000 b 269 939 244 1000 269 975 b 4 501 269 739 4 665 b 7 476 4 493 6 485 b 71 499 22 482 51 499 b 269 471 153 499 182 471 b 365 617 364 471 365 521 b 244 565 319 575 293 565 z "},"½":{"ha":938,"x_min":0,"x_max":0,"o":"m 653 1042 l 553 1042 l 186 -229 l 286 -229 z m 749 93 b 603 106 683 96 638 106 b 890 449 669 207 890 281 b 738 568 890 521 847 568 b 571 458 615 568 571 510 b 628 390 571 414 596 390 b 690 417 647 390 669 399 b 660 468 668 422 660 450 b 725 528 660 506 671 528 b 774 467 749 528 774 503 b 508 29 774 267 508 193 b 511 4 508 21 510 13 b 575 26 526 10 556 26 b 774 -1 657 26 686 -1 b 869 144 868 -1 869 49 b 749 93 824 103 797 93 z m 342 874 b 138 815 244 819 182 815 l 128 781 l 204 781 l 97 313 l 214 313 z "},"¼":{"ha":957,"x_min":0,"x_max":0,"o":"m 660 1042 l 560 1042 l 193 -229 l 293 -229 z m 715 208 l 668 1 l 783 1 l 831 208 l 879 208 l 896 263 l 843 263 l 913 564 l 793 549 l 728 263 l 603 263 b 721 493 643 333 721 397 b 631 564 721 540 678 564 b 636 518 635 549 636 533 b 519 208 636 408 547 290 z m 342 874 b 138 815 244 819 182 815 l 128 781 l 204 781 l 97 313 l 214 313 z "},"¾":{"ha":1138,"x_min":0,"x_max":0,"o":"m 821 1042 l 721 1042 l 354 -229 l 454 -229 z m 246 506 b 181 543 239 532 217 543 b 85 429 118 543 85 500 b 264 308 85 321 199 308 b 471 503 383 308 471 413 b 371 625 471 557 442 604 b 481 764 446 660 481 714 b 339 874 481 822 432 874 b 165 764 218 874 165 815 b 222 696 165 719 190 696 b 285 722 242 696 264 704 b 254 774 263 728 254 756 b 326 833 254 811 274 833 b 378 775 360 833 378 808 b 240 626 378 722 333 649 b 344 486 314 603 344 543 b 246 356 344 419 304 356 b 175 417 204 356 175 367 b 246 506 175 454 181 500 z m 881 208 l 833 1 l 949 1 l 996 208 l 1044 208 l 1061 263 l 1008 263 l 1078 564 l 958 549 l 893 263 l 768 263 b 886 493 808 333 886 397 b 796 564 886 540 843 564 b 801 518 800 549 801 533 b 685 208 801 408 713 290 z "},"%":{"ha":894,"x_min":0,"x_max":0,"o":"m 804 1042 l 704 1042 l 168 0 l 268 0 z m 374 975 b 149 678 235 975 149 842 b 282 519 149 578 174 519 b 488 818 415 519 488 700 b 374 975 488 919 454 975 z m 251 721 b 369 926 263 856 331 926 b 404 839 399 926 404 888 b 286 571 404 699 360 571 b 249 661 256 571 249 617 b 251 721 249 683 250 704 z m 718 456 b 493 158 579 456 493 322 b 626 0 493 58 518 0 b 846 299 788 0 846 181 b 718 456 846 400 799 456 z m 589 201 b 699 404 600 336 660 404 b 738 310 728 404 738 358 b 624 51 738 169 697 51 b 586 142 593 51 586 97 b 589 201 586 164 588 185 z "},"°":{"ha":436,"x_min":0,"x_max":0,"o":"m 276 975 b 51 678 138 975 51 842 b 185 519 51 578 76 519 b 390 818 318 519 390 700 b 276 975 390 919 357 975 z m 154 721 b 272 926 165 856 233 926 b 307 839 301 926 307 888 b 189 571 307 699 263 571 b 151 661 158 571 151 617 b 154 721 151 683 153 704 z "},"¥":{"ha":658,"x_min":0,"x_max":0,"o":"m 436 426 l 708 1042 l 617 1042 l 408 540 l 286 1042 l 58 1042 l 214 426 l 81 426 l 61 357 l 199 357 l 179 267 l 46 267 l 26 197 l 164 197 l 122 0 l 344 0 l 386 197 l 564 197 l 583 267 l 401 267 l 421 357 l 599 357 l 618 426 z "},"£":{"ha":646,"x_min":0,"x_max":0,"o":"m 583 588 b 496 556 564 567 531 556 b 378 582 451 556 417 569 l 489 1042 l 281 999 l 181 589 b 35 465 117 569 65 528 l 43 463 b 135 499 68 486 99 499 b 158 497 143 499 151 499 l 39 0 l 449 0 b 593 219 524 0 579 86 b 268 126 443 108 365 139 l 346 447 l 368 447 b 592 586 474 447 576 521 z "},"‰":{"ha":1265,"x_min":0,"x_max":0,"o":"m 781 1042 l 681 1042 l 144 0 l 244 0 z m 350 975 b 125 678 211 975 125 842 b 258 519 125 578 150 519 b 464 818 392 519 464 700 b 350 975 464 919 431 975 z m 228 721 b 346 926 239 856 307 926 b 381 839 375 926 381 888 b 263 571 381 699 336 571 b 225 661 232 571 225 617 b 228 721 225 683 226 704 z m 694 456 b 469 158 556 456 469 322 b 603 0 469 58 494 0 b 822 299 764 0 822 181 b 694 456 822 400 775 456 z m 565 201 b 675 404 576 336 636 404 b 714 310 704 404 714 358 b 600 51 714 169 674 51 b 563 142 569 51 563 97 b 565 201 563 164 564 185 z m 1094 456 b 869 158 956 456 869 322 b 1003 0 869 58 894 0 b 1222 299 1164 0 1222 181 b 1094 456 1222 400 1175 456 z m 965 201 b 1075 404 976 336 1036 404 b 1114 310 1104 404 1114 358 b 1000 51 1114 169 1074 51 b 963 142 969 51 963 97 b 965 201 963 164 964 185 z "},"‹":{"ha":499,"x_min":0,"x_max":0,"o":"m 467 624 l 40 388 l 28 331 l 371 113 l 388 192 l 118 353 l 453 547 z "},"›":{"ha":478,"x_min":0,"x_max":0,"o":"m 104 547 l 374 353 l 40 192 l 21 113 l 443 313 l 458 388 l 117 624 z "},"œ":{"ha":1074,"x_min":0,"x_max":0,"o":"m 356 708 b -10 219 164 708 -10 561 b 203 -8 -10 54 54 -8 b 519 408 342 -8 493 129 b 586 433 543 415 565 424 b 556 221 564 358 556 282 b 761 0 556 101 628 0 b 1153 283 940 0 1074 140 l 1090 283 b 857 100 1042 181 925 100 b 743 219 803 100 743 128 b 747 279 743 236 744 257 b 1061 563 879 296 1061 393 b 883 707 1061 660 997 707 b 611 500 744 707 660 614 b 564 492 597 494 582 492 b 524 504 544 492 532 496 b 356 708 521 606 488 708 z m 268 126 b 175 232 214 126 175 149 b 361 626 175 343 231 626 b 419 554 400 626 415 600 b 358 457 382 540 358 497 b 417 394 358 424 376 394 b 268 126 400 260 353 126 z m 978 556 b 758 346 976 457 886 347 b 929 633 788 476 851 633 b 978 556 971 633 978 585 z "},"Œ":{"ha":1551,"x_min":0,"x_max":0,"o":"m 875 582 l 943 901 b 1138 875 1008 888 1074 875 b 1269 1042 1246 899 1250 983 b 1144 1025 1231 1029 1188 1025 b 914 1042 1057 1025 969 1042 b 690 1010 825 1042 751 1029 b 496 1042 638 1031 574 1042 b 8 681 264 1042 8 865 b 157 546 8 581 61 546 b 138 640 156 558 138 569 b 513 978 138 851 288 978 b 715 694 688 978 715 847 b 461 104 715 435 581 104 b 351 329 385 104 351 210 b 539 911 351 557 425 761 b 474 922 515 918 494 922 b 176 301 268 922 176 561 b 461 -12 176 71 283 -12 b 551 6 492 -12 522 -6 l 550 0 l 1063 0 l 1092 147 l 782 147 l 854 479 l 1061 479 l 1089 582 z "}}}
